<?xml version="1.0" encoding="UTF-8" standalone="no"?>
<!DOCTYPE svg PUBLIC "-//W3C//DTD SVG 1.0//EN" "http://www.w3.org/TR/2001/PR-SVG-20010719/DTD/svg10.dtd">
<svg width="22cm" height="9cm" viewBox="527 357 424 178" xmlns="http://www.w3.org/2000/svg" xmlns:xlink="http://www.w3.org/1999/xlink">
  <rect style="fill: none; fill-opacity:0; stroke-width: 2; stroke: #000000" x="644.113" y="358.74" width="305.887" height="175.026"/>
  <text font-size="12.8" style="fill: #000000;text-anchor:middle;font-family:sans-serif;font-style:normal;font-weight:normal" x="798.07" y="377.156">
    <tspan x="798.07" y="377.156">Proxy</tspan>
  </text>
  <text font-size="12.8" style="fill: #000000;text-anchor:middle;font-family:sans-serif;font-style:normal;font-weight:normal" x="690.589" y="524.165">
    <tspan x="690.589" y="524.165">Subcollector 1</tspan>
  </text>
  <text font-size="12.8" style="fill: #000000;text-anchor:middle;font-family:sans-serif;font-style:normal;font-weight:normal" x="790.589" y="524.165">
    <tspan x="790.589" y="524.165">Subcollector 2</tspan>
  </text>
  <text font-size="12.8" style="fill: #000000;text-anchor:middle;font-family:sans-serif;font-style:normal;font-weight:normal" x="890.589" y="524.165">
    <tspan x="890.589" y="524.165">Subcollector 3</tspan>
  </text>
  <g>
    <path style="fill: #b7b79d" d="M 774.953 406.97 L 814.921,406.97 L 814.921,414.356 L 774.953,414.356 L 774.953,406.97z"/>
    <path style="fill: none; fill-opacity:0; stroke-width: 0.02; stroke: #494936" d="M 774.953 406.97 L 814.921,406.97 L 814.921,414.356 L 774.953,414.356 L 774.953,406.97"/>
    <path style="fill: #c9c9b6" d="M 774.953 406.97 L 779.191,402.952 L 819.159,402.952 L 814.921,406.97 L 774.953,406.97z"/>
    <path style="fill: none; fill-opacity:0; stroke-width: 0.02; stroke: #494936" d="M 774.953 406.97 L 779.191,402.952 L 819.159,402.952 L 814.921,406.97 L 774.953,406.97"/>
    <path style="fill: none; fill-opacity:0; stroke-width: 2.12; stroke: #000000" d="M 812.686 410.332 L 803.095,410.332"/>
    <path style="fill: #7a7a5a" d="M 814.921 414.356 L 819.159,410.106 L 819.159,402.952 L 814.921,406.97 L 814.921,414.356z"/>
    <path style="fill: none; fill-opacity:0; stroke-width: 0.02; stroke: #494936" d="M 814.921 414.356 L 819.159,410.106 L 819.159,402.952 L 814.921,406.97 L 814.921,414.356"/>
    <path style="fill: #c9c9b6" d="M 775.18 419.041 L 779.638,413.456 L 810.457,413.456 L 805.998,419.041 L 775.18,419.041z"/>
    <path style="fill: none; fill-opacity:0; stroke-width: 0.02; stroke: #494936" d="M 775.18 419.041 L 779.638,413.456 L 810.457,413.456 L 805.998,419.041 L 775.18,419.041"/>
    <path style="fill: #7a7a5a" d="M 805.998 420.156 L 810.457,415.471 L 810.457,413.456 L 805.998,419.041 L 805.998,420.156z"/>
    <path style="fill: none; fill-opacity:0; stroke-width: 0.02; stroke: #494936" d="M 805.998 420.156 L 810.457,415.471 L 810.457,413.456 L 805.998,419.041 L 805.998,420.156"/>
    <path style="fill: #b7b79d" d="M 775.18 419.041 L 805.998,419.041 L 805.998,420.156 L 775.18,420.156 L 775.18,419.041z"/>
    <path style="fill: none; fill-opacity:0; stroke-width: 0.02; stroke: #494936" d="M 775.18 419.041 L 805.998,419.041 L 805.998,420.156 L 775.18,420.156 L 775.18,419.041"/>
    <path style="fill: #000000" d="M 780.979 406.082 L 784.336,402.952 L 812.686,402.952 L 809.569,406.082 L 780.979,406.082z"/>
    <path style="fill: none; fill-opacity:0; stroke-width: 0.02; stroke: #000000" d="M 780.979 406.082 L 784.336,402.952 L 812.686,402.952 L 809.569,406.082 L 780.979,406.082"/>
    <path style="fill: #c9c9b6" d="M 780.753 383.059 L 783.889,380.156 L 812.251,380.156 L 809.115,383.059 L 780.753,383.059z"/>
    <path style="fill: none; fill-opacity:0; stroke-width: 0.02; stroke: #494936" d="M 780.753 383.059 L 783.889,380.156 L 812.251,380.156 L 809.115,383.059 L 780.753,383.059"/>
    <path style="fill: #b7b79d" d="M 780.753 383.059 L 809.342,383.059 L 809.342,405.628 L 780.753,405.628 L 780.753,383.059z"/>
    <path style="fill: none; fill-opacity:0; stroke-width: 0.02; stroke: #494936" d="M 780.753 383.059 L 809.329,383.059 L 809.329,405.622 L 780.753,405.622 L 780.753,383.059"/>
    <path style="fill: #ffffff" d="M 783.208 385.956 L 806.88,385.956 L 806.88,403.393 L 783.208,403.393 L 783.208,385.956z"/>
    <path style="fill: none; fill-opacity:0; stroke-width: 0.02; stroke: #494936" d="M 783.208 385.956 L 806.88,385.956 L 806.88,403.387 L 783.208,403.387 L 783.208,385.956"/>
    <path style="fill: #7a7a5a" d="M 809.115 405.414 L 812.251,402.285 L 812.251,380.156 L 809.115,383.059 L 809.115,405.414z"/>
    <path style="fill: none; fill-opacity:0; stroke-width: 0.02; stroke: #494936" d="M 809.115 405.414 L 812.251,402.285 L 812.251,380.156 L 809.115,383.059 L 809.115,405.414"/>
  </g>
  <g>
    <path style="fill: #b7b79d" d="M 674.953 499.079 L 714.921,499.079 L 714.921,506.465 L 674.953,506.465 L 674.953,499.079z"/>
    <path style="fill: none; fill-opacity:0; stroke-width: 0.02; stroke: #494936" d="M 674.953 499.079 L 714.921,499.079 L 714.921,506.465 L 674.953,506.465 L 674.953,499.079"/>
    <path style="fill: #c9c9b6" d="M 674.953 499.079 L 679.191,495.061 L 719.159,495.061 L 714.921,499.079 L 674.953,499.079z"/>
    <path style="fill: none; fill-opacity:0; stroke-width: 0.02; stroke: #494936" d="M 674.953 499.079 L 679.191,495.061 L 719.159,495.061 L 714.921,499.079 L 674.953,499.079"/>
    <path style="fill: none; fill-opacity:0; stroke-width: 2.12; stroke: #000000" d="M 712.686 502.441 L 703.095,502.441"/>
    <path style="fill: #7a7a5a" d="M 714.921 506.465 L 719.159,502.215 L 719.159,495.061 L 714.921,499.079 L 714.921,506.465z"/>
    <path style="fill: none; fill-opacity:0; stroke-width: 0.02; stroke: #494936" d="M 714.921 506.465 L 719.159,502.215 L 719.159,495.061 L 714.921,499.079 L 714.921,506.465"/>
    <path style="fill: #c9c9b6" d="M 675.18 511.15 L 679.638,505.565 L 710.457,505.565 L 705.998,511.15 L 675.18,511.15z"/>
    <path style="fill: none; fill-opacity:0; stroke-width: 0.02; stroke: #494936" d="M 675.18 511.15 L 679.638,505.565 L 710.457,505.565 L 705.998,511.15 L 675.18,511.15"/>
    <path style="fill: #7a7a5a" d="M 705.998 512.265 L 710.457,507.58 L 710.457,505.565 L 705.998,511.15 L 705.998,512.265z"/>
    <path style="fill: none; fill-opacity:0; stroke-width: 0.02; stroke: #494936" d="M 705.998 512.265 L 710.457,507.58 L 710.457,505.565 L 705.998,511.15 L 705.998,512.265"/>
    <path style="fill: #b7b79d" d="M 675.18 511.15 L 705.998,511.15 L 705.998,512.265 L 675.18,512.265 L 675.18,511.15z"/>
    <path style="fill: none; fill-opacity:0; stroke-width: 0.02; stroke: #494936" d="M 675.18 511.15 L 705.998,511.15 L 705.998,512.265 L 675.18,512.265 L 675.18,511.15"/>
    <path style="fill: #000000" d="M 680.979 498.191 L 684.336,495.061 L 712.686,495.061 L 709.569,498.191 L 680.979,498.191z"/>
    <path style="fill: none; fill-opacity:0; stroke-width: 0.02; stroke: #000000" d="M 680.979 498.191 L 684.336,495.061 L 712.686,495.061 L 709.569,498.191 L 680.979,498.191"/>
    <path style="fill: #c9c9b6" d="M 680.753 475.168 L 683.889,472.265 L 712.251,472.265 L 709.115,475.168 L 680.753,475.168z"/>
    <path style="fill: none; fill-opacity:0; stroke-width: 0.02; stroke: #494936" d="M 680.753 475.168 L 683.889,472.265 L 712.251,472.265 L 709.115,475.168 L 680.753,475.168"/>
    <path style="fill: #b7b79d" d="M 680.753 475.168 L 709.342,475.168 L 709.342,497.737 L 680.753,497.737 L 680.753,475.168z"/>
    <path style="fill: none; fill-opacity:0; stroke-width: 0.02; stroke: #494936" d="M 680.753 475.168 L 709.329,475.168 L 709.329,497.731 L 680.753,497.731 L 680.753,475.168"/>
    <path style="fill: #ffffff" d="M 683.208 478.065 L 706.88,478.065 L 706.88,495.502 L 683.208,495.502 L 683.208,478.065z"/>
    <path style="fill: none; fill-opacity:0; stroke-width: 0.02; stroke: #494936" d="M 683.208 478.065 L 706.88,478.065 L 706.88,495.495 L 683.208,495.495 L 683.208,478.065"/>
    <path style="fill: #7a7a5a" d="M 709.115 497.523 L 712.251,494.393 L 712.251,472.265 L 709.115,475.168 L 709.115,497.523z"/>
    <path style="fill: none; fill-opacity:0; stroke-width: 0.02; stroke: #494936" d="M 709.115 497.523 L 712.251,494.393 L 712.251,472.265 L 709.115,475.168 L 709.115,497.523"/>
  </g>
  <g>
    <path style="fill: #b7b79d" d="M 774.953 499.079 L 814.921,499.079 L 814.921,506.465 L 774.953,506.465 L 774.953,499.079z"/>
    <path style="fill: none; fill-opacity:0; stroke-width: 0.02; stroke: #494936" d="M 774.953 499.079 L 814.921,499.079 L 814.921,506.465 L 774.953,506.465 L 774.953,499.079"/>
    <path style="fill: #c9c9b6" d="M 774.953 499.079 L 779.191,495.061 L 819.159,495.061 L 814.921,499.079 L 774.953,499.079z"/>
    <path style="fill: none; fill-opacity:0; stroke-width: 0.02; stroke: #494936" d="M 774.953 499.079 L 779.191,495.061 L 819.159,495.061 L 814.921,499.079 L 774.953,499.079"/>
    <path style="fill: none; fill-opacity:0; stroke-width: 2.12; stroke: #000000" d="M 812.686 502.441 L 803.095,502.441"/>
    <path style="fill: #7a7a5a" d="M 814.921 506.465 L 819.159,502.215 L 819.159,495.061 L 814.921,499.079 L 814.921,506.465z"/>
    <path style="fill: none; fill-opacity:0; stroke-width: 0.02; stroke: #494936" d="M 814.921 506.465 L 819.159,502.215 L 819.159,495.061 L 814.921,499.079 L 814.921,506.465"/>
    <path style="fill: #c9c9b6" d="M 775.18 511.15 L 779.638,505.565 L 810.457,505.565 L 805.998,511.15 L 775.18,511.15z"/>
    <path style="fill: none; fill-opacity:0; stroke-width: 0.02; stroke: #494936" d="M 775.18 511.15 L 779.638,505.565 L 810.457,505.565 L 805.998,511.15 L 775.18,511.15"/>
    <path style="fill: #7a7a5a" d="M 805.998 512.265 L 810.457,507.58 L 810.457,505.565 L 805.998,511.15 L 805.998,512.265z"/>
    <path style="fill: none; fill-opacity:0; stroke-width: 0.02; stroke: #494936" d="M 805.998 512.265 L 810.457,507.58 L 810.457,505.565 L 805.998,511.15 L 805.998,512.265"/>
    <path style="fill: #b7b79d" d="M 775.18 511.15 L 805.998,511.15 L 805.998,512.265 L 775.18,512.265 L 775.18,511.15z"/>
    <path style="fill: none; fill-opacity:0; stroke-width: 0.02; stroke: #494936" d="M 775.18 511.15 L 805.998,511.15 L 805.998,512.265 L 775.18,512.265 L 775.18,511.15"/>
    <path style="fill: #000000" d="M 780.979 498.191 L 784.336,495.061 L 812.686,495.061 L 809.569,498.191 L 780.979,498.191z"/>
    <path style="fill: none; fill-opacity:0; stroke-width: 0.02; stroke: #000000" d="M 780.979 498.191 L 784.336,495.061 L 812.686,495.061 L 809.569,498.191 L 780.979,498.191"/>
    <path style="fill: #c9c9b6" d="M 780.753 475.168 L 783.889,472.265 L 812.251,472.265 L 809.115,475.168 L 780.753,475.168z"/>
    <path style="fill: none; fill-opacity:0; stroke-width: 0.02; stroke: #494936" d="M 780.753 475.168 L 783.889,472.265 L 812.251,472.265 L 809.115,475.168 L 780.753,475.168"/>
    <path style="fill: #b7b79d" d="M 780.753 475.168 L 809.342,475.168 L 809.342,497.737 L 780.753,497.737 L 780.753,475.168z"/>
    <path style="fill: none; fill-opacity:0; stroke-width: 0.02; stroke: #494936" d="M 780.753 475.168 L 809.329,475.168 L 809.329,497.731 L 780.753,497.731 L 780.753,475.168"/>
    <path style="fill: #ffffff" d="M 783.208 478.065 L 806.88,478.065 L 806.88,495.502 L 783.208,495.502 L 783.208,478.065z"/>
    <path style="fill: none; fill-opacity:0; stroke-width: 0.02; stroke: #494936" d="M 783.208 478.065 L 806.88,478.065 L 806.88,495.495 L 783.208,495.495 L 783.208,478.065"/>
    <path style="fill: #7a7a5a" d="M 809.115 497.523 L 812.251,494.393 L 812.251,472.265 L 809.115,475.168 L 809.115,497.523z"/>
    <path style="fill: none; fill-opacity:0; stroke-width: 0.02; stroke: #494936" d="M 809.115 497.523 L 812.251,494.393 L 812.251,472.265 L 809.115,475.168 L 809.115,497.523"/>
  </g>
  <g>
    <path style="fill: #b7b79d" d="M 874.953 499.079 L 914.921,499.079 L 914.921,506.465 L 874.953,506.465 L 874.953,499.079z"/>
    <path style="fill: none; fill-opacity:0; stroke-width: 0.02; stroke: #494936" d="M 874.953 499.079 L 914.921,499.079 L 914.921,506.465 L 874.953,506.465 L 874.953,499.079"/>
    <path style="fill: #c9c9b6" d="M 874.953 499.079 L 879.191,495.061 L 919.159,495.061 L 914.921,499.079 L 874.953,499.079z"/>
    <path style="fill: none; fill-opacity:0; stroke-width: 0.02; stroke: #494936" d="M 874.953 499.079 L 879.191,495.061 L 919.159,495.061 L 914.921,499.079 L 874.953,499.079"/>
    <path style="fill: none; fill-opacity:0; stroke-width: 2.12; stroke: #000000" d="M 912.686 502.441 L 903.095,502.441"/>
    <path style="fill: #7a7a5a" d="M 914.921 506.465 L 919.159,502.215 L 919.159,495.061 L 914.921,499.079 L 914.921,506.465z"/>
    <path style="fill: none; fill-opacity:0; stroke-width: 0.02; stroke: #494936" d="M 914.921 506.465 L 919.159,502.215 L 919.159,495.061 L 914.921,499.079 L 914.921,506.465"/>
    <path style="fill: #c9c9b6" d="M 875.18 511.15 L 879.638,505.565 L 910.457,505.565 L 905.998,511.15 L 875.18,511.15z"/>
    <path style="fill: none; fill-opacity:0; stroke-width: 0.02; stroke: #494936" d="M 875.18 511.15 L 879.638,505.565 L 910.457,505.565 L 905.998,511.15 L 875.18,511.15"/>
    <path style="fill: #7a7a5a" d="M 905.998 512.265 L 910.457,507.58 L 910.457,505.565 L 905.998,511.15 L 905.998,512.265z"/>
    <path style="fill: none; fill-opacity:0; stroke-width: 0.02; stroke: #494936" d="M 905.998 512.265 L 910.457,507.58 L 910.457,505.565 L 905.998,511.15 L 905.998,512.265"/>
    <path style="fill: #b7b79d" d="M 875.18 511.15 L 905.998,511.15 L 905.998,512.265 L 875.18,512.265 L 875.18,511.15z"/>
    <path style="fill: none; fill-opacity:0; stroke-width: 0.02; stroke: #494936" d="M 875.18 511.15 L 905.998,511.15 L 905.998,512.265 L 875.18,512.265 L 875.18,511.15"/>
    <path style="fill: #000000" d="M 880.979 498.191 L 884.336,495.061 L 912.686,495.061 L 909.569,498.191 L 880.979,498.191z"/>
    <path style="fill: none; fill-opacity:0; stroke-width: 0.02; stroke: #000000" d="M 880.979 498.191 L 884.336,495.061 L 912.686,495.061 L 909.569,498.191 L 880.979,498.191"/>
    <path style="fill: #c9c9b6" d="M 880.753 475.168 L 883.889,472.265 L 912.251,472.265 L 909.115,475.168 L 880.753,475.168z"/>
    <path style="fill: none; fill-opacity:0; stroke-width: 0.02; stroke: #494936" d="M 880.753 475.168 L 883.889,472.265 L 912.251,472.265 L 909.115,475.168 L 880.753,475.168"/>
    <path style="fill: #b7b79d" d="M 880.753 475.168 L 909.342,475.168 L 909.342,497.737 L 880.753,497.737 L 880.753,475.168z"/>
    <path style="fill: none; fill-opacity:0; stroke-width: 0.02; stroke: #494936" d="M 880.753 475.168 L 909.329,475.168 L 909.329,497.731 L 880.753,497.731 L 880.753,475.168"/>
    <path style="fill: #ffffff" d="M 883.208 478.065 L 906.88,478.065 L 906.88,495.502 L 883.208,495.502 L 883.208,478.065z"/>
    <path style="fill: none; fill-opacity:0; stroke-width: 0.02; stroke: #494936" d="M 883.208 478.065 L 906.88,478.065 L 906.88,495.495 L 883.208,495.495 L 883.208,478.065"/>
    <path style="fill: #7a7a5a" d="M 909.115 497.523 L 912.251,494.393 L 912.251,472.265 L 909.115,475.168 L 909.115,497.523z"/>
    <path style="fill: none; fill-opacity:0; stroke-width: 0.02; stroke: #494936" d="M 909.115 497.523 L 912.251,494.393 L 912.251,472.265 L 909.115,475.168 L 909.115,497.523"/>
  </g>
  <g>
    <line style="fill: none; fill-opacity:0; stroke-width: 6; stroke: #000000" x1="586.895" y1="403.291" x2="764.182" y2="403.663"/>
    <polygon style="fill: #000000" points="771.682,403.679 761.672,408.658 764.182,403.663 761.693,398.658 "/>
    <polygon style="fill: none; fill-opacity:0; stroke-width: 6; stroke: #000000" points="771.682,403.679 761.672,408.658 764.182,403.663 761.693,398.658 "/>
  </g>
  <g>
    <line style="fill: none; fill-opacity:0; stroke-width: 2; stroke: #000000" x1="779.744" y1="420.16" x2="719.412" y2="475.731"/>
    <polygon style="fill: #000000" points="713.896,480.812 717.864,470.359 719.412,475.731 724.639,477.715 "/>
    <polygon style="fill: none; fill-opacity:0; stroke-width: 2; stroke: #000000" points="713.896,480.812 717.864,470.359 719.412,475.731 724.639,477.715 "/>
  </g>
  <g>
    <line style="fill: none; fill-opacity:0; stroke-width: 2; stroke: #000000" x1="797.578" y1="420.16" x2="797.578" y2="462.528"/>
    <polygon style="fill: #000000" points="797.578,470.028 792.578,460.028 797.578,462.528 802.578,460.028 "/>
    <polygon style="fill: none; fill-opacity:0; stroke-width: 2; stroke: #000000" points="797.578,470.028 792.578,460.028 797.578,462.528 802.578,460.028 "/>
  </g>
  <g>
    <line style="fill: none; fill-opacity:0; stroke-width: 2; stroke: #000000" x1="810.402" y1="415.544" x2="873.596" y2="473.752"/>
    <polygon style="fill: #000000" points="879.112,478.833 868.369,475.736 873.596,473.752 875.144,468.38 "/>
    <polygon style="fill: none; fill-opacity:0; stroke-width: 2; stroke: #000000" points="879.112,478.833 868.369,475.736 873.596,473.752 875.144,468.38 "/>
  </g>
  <g>
    <path style="fill: #1c96cc" d="M 579.565 422.652 L 579.565,391.037 L 545.964,391.037 L 545.964,422.652 L 579.565,422.652z"/>
    <path style="fill: #add6e7" d="M 579.565 390.772 L 579.285,391.037 L 579.285,422.652 L 579.838,422.652 L 579.838,391.037 L 579.565,390.772 L 579.838,391.037 L 579.838,390.772 L 579.565,390.772z"/>
    <path style="fill: #add6e7" d="M 545.692 391.037 L 545.964,391.317 L 579.565,391.317 L 579.565,390.772 L 545.964,390.772 L 545.692,391.037 L 545.964,390.772 L 545.692,390.772 L 545.692,391.037z"/>
    <path style="fill: #add6e7" d="M 545.964 422.916 L 546.244,422.652 L 546.244,391.037 L 545.692,391.037 L 545.692,422.652 L 545.964,422.916 L 545.692,422.652 L 545.692,422.916 L 545.964,422.916z"/>
    <path style="fill: #add6e7" d="M 579.838 422.652 L 579.565,422.388 L 545.964,422.388 L 545.964,422.916 L 579.565,422.916 L 579.838,422.652 L 579.565,422.916 L 579.838,422.916 L 579.838,422.652z"/>
    <path style="fill: #3cafe4" d="M 579.565 391.037 L 587.077,383.909 L 553.523,383.909 L 545.964,391.037 L 579.565,391.037z"/>
    <path style="fill: #add6e7" d="M 587.077 383.629 L 586.885,383.709 L 579.373,390.836 L 579.758,391.237 L 587.261,384.102 L 587.077,383.629 L 587.261,384.102 L 587.734,383.629 L 587.077,383.629z"/>
    <path style="fill: #add6e7" d="M 553.323 383.709 L 553.523,384.174 L 587.077,384.174 L 587.077,383.629 L 553.523,383.629 L 553.323,383.709 L 553.523,383.629 L 553.411,383.629 L 553.323,383.709z"/>
    <path style="fill: #add6e7" d="M 545.964 391.317 L 546.164,391.237 L 553.7,384.102 L 553.323,383.709 L 545.788,390.836 L 545.964,391.317 L 545.788,390.836 L 545.291,391.317 L 545.964,391.317z"/>
    <path style="fill: #add6e7" d="M 579.758 391.237 L 579.565,390.772 L 545.964,390.772 L 545.964,391.317 L 579.565,391.317 L 579.758,391.237 L 579.565,391.317 L 579.678,391.317 L 579.758,391.237z"/>
    <path style="fill: #075f87" d="M 587.077 415.509 L 587.077,383.909 L 579.565,391.037 L 579.565,422.652 L 587.077,415.509z"/>
    <path style="fill: #add6e7" d="M 586.885 383.709 L 586.789,383.909 L 586.789,415.509 L 587.341,415.509 L 587.341,383.909 L 586.885,383.709 L 587.341,383.909 L 587.341,383.277 L 586.885,383.709z"/>
    <path style="fill: #add6e7" d="M 579.285 391.037 L 579.758,391.237 L 587.261,384.102 L 586.885,383.709 L 579.373,390.836 L 579.285,391.037 L 579.373,390.836 L 579.285,390.932 L 579.285,391.037z"/>
    <path style="fill: #add6e7" d="M 579.758 422.852 L 579.838,422.652 L 579.838,391.037 L 579.285,391.037 L 579.285,422.652 L 579.758,422.852 L 579.285,422.652 L 579.285,423.277 L 579.758,422.852z"/>
    <path style="fill: #add6e7" d="M 587.341 415.509 L 586.885,415.317 L 579.373,422.46 L 579.758,422.852 L 587.261,415.709 L 587.341,415.509 L 587.261,415.709 L 587.341,415.637 L 587.341,415.509z"/>
    <path style="fill: #ffffff" d="M 549.447 421.075 L 549.535,421.075 L 549.607,421.067 L 549.672,421.067 L 549.744,421.051 L 549.816,421.035 L 549.888,421.011 L 549.96,420.995 L 550.016,420.963 L 550.088,420.938 L 550.144,420.906 L 550.208,420.866 L 550.264,420.834 L 550.32,420.794 L 550.384,420.754 L 550.432,420.706 L 550.472,420.658 L 550.52,420.61 L 550.568,420.554 L 550.616,420.506 L 550.665,420.45 L 550.697,420.386 L 550.737,420.322 L 550.769,420.266 L 550.793,420.202 L 550.817,420.138 L 550.841,420.066 L 550.865,420.002 L 550.865,419.921 L 550.889,419.857 L 550.897,419.785 L 550.897,419.713 L 550.913,419.641 L 550.897,419.561 L 550.897,419.497 L 550.889,419.417 L 550.865,419.353 L 550.865,419.273 L 550.841,419.217 L 550.817,419.145 L 550.793,419.073 L 550.769,419.017 L 550.737,418.953 L 550.697,418.896 L 550.665,418.832 L 550.616,418.768 L 550.568,418.72 L 550.52,418.664 L 550.472,418.616 L 550.432,418.568 L 550.384,418.52 L 550.32,418.488 L 550.264,418.448 L 550.208,418.408 L 550.144,418.368 L 550.088,418.344 L 550.016,418.312 L 549.96,418.288 L 549.888,418.264 L 549.816,418.248 L 549.744,418.232 L 549.672,418.216 L 549.607,418.208 L 549.535,418.2 L 549.447,418.2 L 549.383,418.2 L 549.311,418.208 L 549.239,418.216 L 549.167,418.232 L 549.095,418.248 L 549.031,418.264 L 548.967,418.288 L 548.895,418.312 L 548.831,418.344 L 548.767,418.368 L 548.711,418.408 L 548.638,418.448 L 548.59,418.488 L 548.534,418.52 L 548.486,418.568 L 548.438,418.616 L 548.39,418.664 L 548.342,418.72 L 548.294,418.768 L 548.246,418.832 L 548.214,418.896 L 548.182,418.953 L 548.142,419.017 L 548.118,419.073 L 548.094,419.145 L 548.07,419.217 L 548.046,419.273 L 548.038,419.353 L 548.014,419.417 L 548.014,419.497 L 548.014,419.561 L 548.014,419.641 L 548.014,419.713 L 548.014,419.785 L 548.014,419.857 L 548.038,419.921 L 548.046,420.002 L 548.07,420.066 L 548.094,420.138 L 548.118,420.202 L 548.142,420.266 L 548.182,420.322 L 548.214,420.386 L 548.246,420.45 L 548.294,420.506 L 548.342,420.554 L 548.39,420.61 L 548.438,420.658 L 548.486,420.706 L 548.534,420.754 L 548.59,420.794 L 548.638,420.834 L 548.711,420.866 L 548.767,420.906 L 548.831,420.938 L 548.895,420.963 L 548.967,420.995 L 549.031,421.011 L 549.095,421.035 L 549.167,421.051 L 549.239,421.067 L 549.311,421.067 L 549.383,421.075 L 549.447,421.075z"/>
    <path style="fill: none; fill-opacity:0; stroke-width: 0.16; stroke: #000000" d="M 549.447 421.075 L 549.535,421.075 L 549.607,421.067 L 549.672,421.067 L 549.744,421.051 L 549.816,421.035 L 549.888,421.011 L 549.96,420.995 L 550.016,420.963 L 550.088,420.938 L 550.144,420.906 L 550.208,420.866 L 550.264,420.834 L 550.32,420.794 L 550.384,420.754 L 550.432,420.706 L 550.472,420.658 L 550.52,420.61 L 550.568,420.554 L 550.616,420.506 L 550.665,420.45 L 550.697,420.386 L 550.737,420.322 L 550.769,420.266 L 550.793,420.202 L 550.817,420.138 L 550.841,420.066 L 550.865,420.002 L 550.865,419.921 L 550.889,419.857 L 550.897,419.785 L 550.897,419.713 L 550.913,419.641 L 550.897,419.561 L 550.897,419.497 L 550.889,419.417 L 550.865,419.353 L 550.865,419.273 L 550.841,419.217 L 550.817,419.145 L 550.793,419.073 L 550.769,419.017 L 550.737,418.953 L 550.697,418.896 L 550.665,418.832 L 550.616,418.768 L 550.568,418.72 L 550.52,418.664 L 550.472,418.616 L 550.432,418.568 L 550.384,418.52 L 550.32,418.488 L 550.264,418.448 L 550.208,418.408 L 550.144,418.368 L 550.088,418.344 L 550.016,418.312 L 549.96,418.288 L 549.888,418.264 L 549.816,418.248 L 549.744,418.232 L 549.672,418.216 L 549.607,418.208 L 549.535,418.2 L 549.447,418.2 L 549.383,418.2 L 549.311,418.208 L 549.239,418.216 L 549.167,418.232 L 549.095,418.248 L 549.031,418.264 L 548.967,418.288 L 548.895,418.312 L 548.831,418.344 L 548.767,418.368 L 548.711,418.408 L 548.638,418.448 L 548.59,418.488 L 548.534,418.52 L 548.486,418.568 L 548.438,418.616 L 548.39,418.664 L 548.342,418.72 L 548.294,418.768 L 548.246,418.832 L 548.214,418.896 L 548.182,418.953 L 548.142,419.017 L 548.118,419.073 L 548.094,419.145 L 548.07,419.217 L 548.046,419.273 L 548.038,419.353 L 548.014,419.417 L 548.014,419.497 L 548.014,419.561 L 548.014,419.641 L 548.014,419.713 L 548.014,419.785 L 548.014,419.857 L 548.038,419.921 L 548.046,420.002 L 548.07,420.066 L 548.094,420.138 L 548.118,420.202 L 548.142,420.266 L 548.182,420.322 L 548.214,420.386 L 548.246,420.45 L 548.294,420.506 L 548.342,420.554 L 548.39,420.61 L 548.438,420.658 L 548.486,420.706 L 548.534,420.754 L 548.59,420.794 L 548.638,420.834 L 548.711,420.866 L 548.767,420.906 L 548.831,420.938 L 548.895,420.963 L 548.967,420.995 L 549.031,421.011 L 549.095,421.035 L 549.167,421.051 L 549.239,421.067 L 549.311,421.067 L 549.383,421.075 L 549.447,421.075"/>
    <path style="fill: #ffffff" d="M 548.214 418.104 L 551.041,420.85 L 559.049,412.706 L 556.214,409.96 L 548.214,418.104z"/>
    <path style="fill: none; fill-opacity:0; stroke-width: 0.16; stroke: #000000" d="M 548.214 418.104 L 551.041,420.85 L 559.049,412.706 L 556.214,409.96 L 548.214,418.104"/>
    <path style="fill: #ffffff" d="M 555.077 403.97 L 555.101,404.522 L 555.141,405.075 L 555.197,405.603 L 555.301,406.14 L 555.421,406.66 L 555.565,407.173 L 555.742,407.677 L 555.926,408.158 L 556.15,408.646 L 556.398,409.103 L 556.646,409.551 L 556.943,410 L 557.247,410.424 L 557.567,410.832 L 557.904,411.225 L 558.256,411.593 L 558.64,411.954 L 559.041,412.29 L 559.449,412.602 L 559.874,412.906 L 560.306,413.195 L 560.771,413.459 L 561.227,413.691 L 561.708,413.907 L 562.204,414.108 L 562.709,414.268 L 563.229,414.412 L 563.758,414.54 L 564.286,414.636 L 564.831,414.708 L 565.383,414.748 L 565.936,414.756 L 566.488,414.748 L 567.049,414.708 L 567.593,414.636 L 568.114,414.54 L 568.651,414.412 L 569.163,414.268 L 569.668,414.108 L 570.164,413.907 L 570.644,413.691 L 571.109,413.459 L 571.565,413.195 L 572.006,412.906 L 572.422,412.602 L 572.831,412.29 L 573.223,411.954 L 573.607,411.593 L 573.968,411.225 L 574.312,410.832 L 574.624,410.424 L 574.929,410 L 575.217,409.551 L 575.473,409.103 L 575.722,408.646 L 575.93,408.158 L 576.13,407.677 L 576.306,407.173 L 576.45,406.66 L 576.57,406.14 L 576.667,405.603 L 576.731,405.075 L 576.771,404.522 L 576.787,403.97 L 576.771,403.417 L 576.731,402.856 L 576.667,402.336 L 576.57,401.791 L 576.45,401.279 L 576.306,400.766 L 576.13,400.254 L 575.93,399.773 L 575.722,399.293 L 575.473,398.836 L 575.217,398.38 L 574.929,397.939 L 574.624,397.515 L 574.312,397.099 L 573.968,396.714 L 573.607,396.338 L 573.223,395.986 L 572.831,395.641 L 572.422,395.329 L 572.006,395.025 L 571.565,394.736 L 571.109,394.488 L 570.644,394.24 L 570.164,394.032 L 569.668,393.831 L 569.163,393.663 L 568.651,393.519 L 568.114,393.391 L 567.593,393.295 L 567.049,393.231 L 566.488,393.183 L 565.936,393.183 L 565.383,393.183 L 564.831,393.231 L 564.286,393.295 L 563.758,393.391 L 563.229,393.519 L 562.709,393.663 L 562.204,393.831 L 561.708,394.032 L 561.227,394.24 L 560.771,394.488 L 560.306,394.736 L 559.874,395.025 L 559.449,395.329 L 559.041,395.641 L 558.64,395.986 L 558.256,396.338 L 557.904,396.714 L 557.567,397.099 L 557.247,397.515 L 556.943,397.939 L 556.646,398.38 L 556.398,398.836 L 556.15,399.293 L 555.926,399.773 L 555.742,400.254 L 555.565,400.766 L 555.421,401.279 L 555.301,401.791 L 555.197,402.336 L 555.141,402.856 L 555.101,403.417 L 555.077,403.97 L 556.598,403.97 L 556.614,403.489 L 556.646,403.017 L 556.703,402.552 L 556.791,402.096 L 556.895,401.647 L 557.023,401.215 L 557.167,400.782 L 557.327,400.366 L 557.527,399.941 L 557.728,399.541 L 557.952,399.165 L 558.2,398.788 L 558.448,398.42 L 558.729,398.068 L 559.025,397.731 L 559.345,397.411 L 559.658,397.099 L 560.002,396.81 L 560.354,396.538 L 560.723,396.274 L 561.099,396.034 L 561.483,395.809 L 561.9,395.609 L 562.308,395.417 L 562.733,395.241 L 563.157,395.097 L 563.605,394.985 L 564.062,394.88 L 564.51,394.784 L 564.983,394.736 L 565.463,394.688 L 565.936,394.688 L 566.408,394.688 L 566.889,394.736 L 567.361,394.784 L 567.81,394.88 L 568.266,394.985 L 568.715,395.097 L 569.147,395.241 L 569.563,395.417 L 569.98,395.609 L 570.38,395.809 L 570.773,396.034 L 571.157,396.274 L 571.517,396.538 L 571.87,396.81 L 572.214,397.099 L 572.526,397.411 L 572.847,397.731 L 573.143,398.068 L 573.415,398.42 L 573.672,398.788 L 573.92,399.165 L 574.144,399.541 L 574.352,399.941 L 574.544,400.366 L 574.713,400.782 L 574.857,401.215 L 574.977,401.647 L 575.073,402.096 L 575.169,402.552 L 575.225,403.017 L 575.265,403.489 L 575.273,403.97 L 575.265,404.45 L 575.225,404.922 L 575.169,405.379 L 575.073,405.835 L 574.977,406.284 L 574.857,406.724 L 574.713,407.149 L 574.544,407.581 L 574.352,407.99 L 574.144,408.39 L 573.92,408.774 L 573.672,409.151 L 573.415,409.511 L 573.143,409.863 L 572.847,410.2 L 572.526,410.528 L 572.214,410.84 L 571.87,411.129 L 571.517,411.401 L 571.157,411.657 L 570.773,411.905 L 570.38,412.13 L 569.98,412.338 L 569.563,412.514 L 569.147,412.69 L 568.715,412.834 L 568.266,412.955 L 567.81,413.059 L 567.361,413.147 L 566.889,413.203 L 566.408,413.243 L 565.936,413.251 L 565.463,413.243 L 564.983,413.203 L 564.51,413.147 L 564.062,413.059 L 563.605,412.955 L 563.157,412.834 L 562.733,412.69 L 562.308,412.514 L 561.9,412.338 L 561.483,412.13 L 561.099,411.905 L 560.723,411.657 L 560.354,411.401 L 560.002,411.129 L 559.658,410.84 L 559.345,410.528 L 559.025,410.2 L 558.729,409.863 L 558.448,409.511 L 558.2,409.151 L 557.952,408.774 L 557.728,408.39 L 557.527,407.99 L 557.327,407.581 L 557.167,407.149 L 557.023,406.724 L 556.895,406.284 L 556.791,405.835 L 556.703,405.379 L 556.646,404.922 L 556.614,404.45 L 556.598,403.97 L 555.077,403.97z"/>
    <path style="fill: none; fill-opacity:0; stroke-width: 0.06; stroke: #151619" d="M 555.077 403.97 L 555.101,404.522 L 555.141,405.075 L 555.197,405.603 L 555.301,406.14 L 555.421,406.66 L 555.565,407.173 L 555.742,407.677 L 555.926,408.158 L 556.15,408.646 L 556.398,409.103 L 556.646,409.551 L 556.943,410 L 557.247,410.424 L 557.567,410.832 L 557.904,411.225 L 558.256,411.593 L 558.64,411.954 L 559.041,412.29 L 559.449,412.602 L 559.874,412.906 L 560.306,413.195 L 560.771,413.459 L 561.227,413.691 L 561.708,413.907 L 562.204,414.108 L 562.709,414.268 L 563.229,414.412 L 563.758,414.54 L 564.286,414.636 L 564.831,414.708 L 565.383,414.748 L 565.936,414.756 L 566.488,414.748 L 567.049,414.708 L 567.593,414.636 L 568.114,414.54 L 568.651,414.412 L 569.163,414.268 L 569.668,414.108 L 570.164,413.907 L 570.644,413.691 L 571.109,413.459 L 571.565,413.195 L 572.006,412.906 L 572.422,412.602 L 572.831,412.29 L 573.223,411.954 L 573.607,411.593 L 573.968,411.225 L 574.312,410.832 L 574.624,410.424 L 574.929,410 L 575.217,409.551 L 575.473,409.103 L 575.722,408.646 L 575.93,408.158 L 576.13,407.677 L 576.306,407.173 L 576.45,406.66 L 576.57,406.14 L 576.667,405.603 L 576.731,405.075 L 576.771,404.522 L 576.787,403.97 L 576.771,403.417 L 576.731,402.856 L 576.667,402.336 L 576.57,401.791 L 576.45,401.279 L 576.306,400.766 L 576.13,400.254 L 575.93,399.773 L 575.722,399.293 L 575.473,398.836 L 575.217,398.38 L 574.929,397.939 L 574.624,397.515 L 574.312,397.099 L 573.968,396.714 L 573.607,396.338 L 573.223,395.986 L 572.831,395.641 L 572.422,395.329 L 572.006,395.025 L 571.565,394.736 L 571.109,394.488 L 570.644,394.24 L 570.164,394.032 L 569.668,393.831 L 569.163,393.663 L 568.651,393.519 L 568.114,393.391 L 567.593,393.295 L 567.049,393.231 L 566.488,393.183 L 565.936,393.183 L 565.383,393.183 L 564.831,393.231 L 564.286,393.295 L 563.758,393.391 L 563.229,393.519 L 562.709,393.663 L 562.204,393.831 L 561.708,394.032 L 561.227,394.24 L 560.771,394.488 L 560.306,394.736 L 559.874,395.025 L 559.449,395.329 L 559.041,395.641 L 558.64,395.986 L 558.256,396.338 L 557.904,396.714 L 557.567,397.099 L 557.247,397.515 L 556.943,397.939 L 556.646,398.38 L 556.398,398.836 L 556.15,399.293 L 555.926,399.773 L 555.742,400.254 L 555.565,400.766 L 555.421,401.279 L 555.301,401.791 L 555.197,402.336 L 555.141,402.856 L 555.101,403.417 L 555.077,403.97"/>
    <path style="fill: none; fill-opacity:0; stroke-width: 0.06; stroke: #151619" d="M 556.598 403.97 L 556.614,403.489 L 556.646,403.017 L 556.703,402.552 L 556.791,402.096 L 556.895,401.647 L 557.023,401.215 L 557.167,400.782 L 557.327,400.366 L 557.527,399.941 L 557.728,399.541 L 557.952,399.165 L 558.2,398.788 L 558.448,398.42 L 558.729,398.068 L 559.025,397.731 L 559.345,397.411 L 559.658,397.099 L 560.002,396.81 L 560.354,396.538 L 560.723,396.274 L 561.099,396.034 L 561.483,395.809 L 561.9,395.609 L 562.308,395.417 L 562.733,395.241 L 563.157,395.097 L 563.605,394.985 L 564.062,394.88 L 564.51,394.784 L 564.983,394.736 L 565.463,394.688 L 565.936,394.688 L 566.408,394.688 L 566.889,394.736 L 567.361,394.784 L 567.81,394.88 L 568.266,394.985 L 568.715,395.097 L 569.147,395.241 L 569.563,395.417 L 569.98,395.609 L 570.38,395.809 L 570.773,396.034 L 571.157,396.274 L 571.517,396.538 L 571.87,396.81 L 572.214,397.099 L 572.526,397.411 L 572.847,397.731 L 573.143,398.068 L 573.415,398.42 L 573.672,398.788 L 573.92,399.165 L 574.144,399.541 L 574.352,399.941 L 574.544,400.366 L 574.713,400.782 L 574.857,401.215 L 574.977,401.647 L 575.073,402.096 L 575.169,402.552 L 575.225,403.017 L 575.265,403.489 L 575.273,403.97 L 575.265,404.45 L 575.225,404.922 L 575.169,405.379 L 575.073,405.835 L 574.977,406.284 L 574.857,406.724 L 574.713,407.149 L 574.544,407.581 L 574.352,407.99 L 574.144,408.39 L 573.92,408.774 L 573.672,409.151 L 573.415,409.511 L 573.143,409.863 L 572.847,410.2 L 572.526,410.528 L 572.214,410.84 L 571.87,411.129 L 571.517,411.401 L 571.157,411.657 L 570.773,411.905 L 570.38,412.13 L 569.98,412.338 L 569.563,412.514 L 569.147,412.69 L 568.715,412.834 L 568.266,412.955 L 567.81,413.059 L 567.361,413.147 L 566.889,413.203 L 566.408,413.243 L 565.936,413.251 L 565.463,413.243 L 564.983,413.203 L 564.51,413.147 L 564.062,413.059 L 563.605,412.955 L 563.157,412.834 L 562.733,412.69 L 562.308,412.514 L 561.9,412.338 L 561.483,412.13 L 561.099,411.905 L 560.723,411.657 L 560.354,411.401 L 560.002,411.129 L 559.658,410.84 L 559.345,410.528 L 559.025,410.2 L 558.729,409.863 L 558.448,409.511 L 558.2,409.151 L 557.952,408.774 L 557.728,408.39 L 557.527,407.99 L 557.327,407.581 L 557.167,407.149 L 557.023,406.724 L 556.895,406.284 L 556.791,405.835 L 556.703,405.379 L 556.646,404.922 L 556.614,404.45 L 556.598,403.97"/>
    <path style="fill: #ffffff" d="M 553.812 404.594 L 553.82,405.147 L 553.868,405.699 L 553.94,406.228 L 554.02,406.756 L 554.148,407.285 L 554.3,407.797 L 554.468,408.302 L 554.669,408.79 L 554.877,409.263 L 555.125,409.727 L 555.373,410.184 L 555.67,410.624 L 555.974,411.049 L 556.294,411.449 L 556.638,411.849 L 556.999,412.21 L 557.375,412.578 L 557.768,412.906 L 558.176,413.235 L 558.6,413.539 L 559.041,413.811 L 559.497,414.068 L 559.954,414.308 L 560.45,414.532 L 560.931,414.716 L 561.443,414.9 L 561.956,415.045 L 562.484,415.157 L 563.021,415.261 L 563.557,415.317 L 564.11,415.365 L 564.663,415.381 L 565.223,415.365 L 565.776,415.317 L 566.312,415.261 L 566.857,415.157 L 567.369,415.045 L 567.898,414.9 L 568.402,414.716 L 568.891,414.532 L 569.363,414.308 L 569.828,414.068 L 570.292,413.811 L 570.725,413.539 L 571.157,413.235 L 571.565,412.906 L 571.958,412.578 L 572.342,412.21 L 572.695,411.849 L 573.031,411.449 L 573.359,411.049 L 573.664,410.624 L 573.952,410.184 L 574.208,409.727 L 574.448,409.263 L 574.665,408.79 L 574.865,408.302 L 575.025,407.797 L 575.169,407.285 L 575.297,406.756 L 575.385,406.228 L 575.465,405.699 L 575.505,405.147 L 575.521,404.594 L 575.505,404.034 L 575.465,403.489 L 575.385,402.944 L 575.297,402.424 L 575.169,401.895 L 575.025,401.383 L 574.865,400.886 L 574.665,400.39 L 574.448,399.917 L 574.208,399.445 L 573.952,398.989 L 573.664,398.564 L 573.359,398.14 L 573.031,397.731 L 572.695,397.339 L 572.342,396.963 L 571.958,396.61 L 571.565,396.266 L 571.157,395.945 L 570.725,395.641 L 570.292,395.369 L 569.828,395.097 L 569.363,394.872 L 568.891,394.64 L 568.402,394.448 L 567.898,394.288 L 567.369,394.136 L 566.857,394.024 L 566.312,393.927 L 565.776,393.847 L 565.223,393.815 L 564.663,393.791 L 564.11,393.815 L 563.557,393.847 L 563.021,393.927 L 562.484,394.024 L 561.956,394.136 L 561.443,394.288 L 560.931,394.448 L 560.45,394.64 L 559.954,394.872 L 559.497,395.097 L 559.041,395.369 L 558.6,395.641 L 558.176,395.945 L 557.768,396.266 L 557.375,396.61 L 556.999,396.963 L 556.638,397.339 L 556.294,397.731 L 555.974,398.14 L 555.67,398.564 L 555.373,398.989 L 555.125,399.445 L 554.877,399.917 L 554.669,400.39 L 554.468,400.886 L 554.3,401.383 L 554.148,401.895 L 554.02,402.424 L 553.94,402.944 L 553.868,403.489 L 553.82,404.034 L 553.812,404.594 L 555.325,404.594 L 555.341,404.106 L 555.373,403.641 L 555.437,403.185 L 555.517,402.728 L 555.621,402.272 L 555.75,401.839 L 555.894,401.399 L 556.07,400.983 L 556.246,400.574 L 556.454,400.174 L 556.679,399.789 L 556.927,399.397 L 557.191,399.037 L 557.455,398.692 L 557.752,398.348 L 558.072,398.036 L 558.392,397.723 L 558.729,397.435 L 559.081,397.147 L 559.449,396.89 L 559.826,396.65 L 560.218,396.434 L 560.618,396.226 L 561.027,396.034 L 561.451,395.873 L 561.9,395.729 L 562.332,395.593 L 562.781,395.489 L 563.253,395.417 L 563.71,395.361 L 564.182,395.321 L 564.663,395.313 L 565.151,395.321 L 565.623,395.361 L 566.088,395.417 L 566.536,395.489 L 567.001,395.593 L 567.441,395.729 L 567.866,395.873 L 568.298,396.034 L 568.715,396.226 L 569.115,396.434 L 569.507,396.65 L 569.876,396.89 L 570.252,397.147 L 570.604,397.435 L 570.941,397.723 L 571.261,398.036 L 571.565,398.348 L 571.87,398.692 L 572.15,399.037 L 572.406,399.397 L 572.646,399.789 L 572.871,400.174 L 573.071,400.574 L 573.271,400.983 L 573.431,401.399 L 573.575,401.839 L 573.712,402.272 L 573.816,402.728 L 573.896,403.185 L 573.952,403.641 L 573.984,404.106 L 574,404.594 L 573.984,405.075 L 573.952,405.539 L 573.896,405.996 L 573.816,406.452 L 573.712,406.9 L 573.575,407.349 L 573.431,407.781 L 573.271,408.198 L 573.071,408.606 L 572.871,409.007 L 572.646,409.399 L 572.406,409.775 L 572.15,410.144 L 571.87,410.496 L 571.565,410.832 L 571.261,411.153 L 570.941,411.457 L 570.604,411.753 L 570.252,412.026 L 569.876,412.29 L 569.507,412.53 L 569.115,412.754 L 568.715,412.955 L 568.298,413.147 L 567.866,413.307 L 567.441,413.459 L 567.001,413.579 L 566.536,413.683 L 566.088,413.763 L 565.623,413.827 L 565.151,413.859 L 564.663,413.867 L 564.182,413.859 L 563.71,413.827 L 563.253,413.763 L 562.781,413.683 L 562.332,413.579 L 561.9,413.459 L 561.451,413.307 L 561.027,413.147 L 560.618,412.955 L 560.218,412.754 L 559.826,412.53 L 559.449,412.29 L 559.081,412.026 L 558.729,411.753 L 558.392,411.457 L 558.072,411.153 L 557.752,410.832 L 557.455,410.496 L 557.191,410.144 L 556.927,409.775 L 556.679,409.399 L 556.454,409.007 L 556.246,408.606 L 556.07,408.198 L 555.894,407.781 L 555.75,407.349 L 555.621,406.9 L 555.517,406.452 L 555.437,405.996 L 555.373,405.539 L 555.341,405.075 L 555.325,404.594 L 553.812,404.594z"/>
    <path style="fill: none; fill-opacity:0; stroke-width: 0.06; stroke: #151619" d="M 553.812 404.594 L 553.82,405.147 L 553.868,405.699 L 553.94,406.228 L 554.02,406.756 L 554.148,407.285 L 554.3,407.797 L 554.468,408.302 L 554.669,408.79 L 554.877,409.263 L 555.125,409.727 L 555.373,410.184 L 555.67,410.624 L 555.974,411.049 L 556.294,411.449 L 556.638,411.849 L 556.999,412.21 L 557.375,412.578 L 557.768,412.906 L 558.176,413.235 L 558.6,413.539 L 559.041,413.811 L 559.497,414.068 L 559.954,414.308 L 560.45,414.532 L 560.931,414.716 L 561.443,414.9 L 561.956,415.045 L 562.484,415.157 L 563.021,415.261 L 563.557,415.317 L 564.11,415.365 L 564.663,415.381 L 565.223,415.365 L 565.776,415.317 L 566.312,415.261 L 566.857,415.157 L 567.369,415.045 L 567.898,414.9 L 568.402,414.716 L 568.891,414.532 L 569.363,414.308 L 569.828,414.068 L 570.292,413.811 L 570.725,413.539 L 571.157,413.235 L 571.565,412.906 L 571.958,412.578 L 572.342,412.21 L 572.695,411.849 L 573.031,411.449 L 573.359,411.049 L 573.664,410.624 L 573.952,410.184 L 574.208,409.727 L 574.448,409.263 L 574.665,408.79 L 574.865,408.302 L 575.025,407.797 L 575.169,407.285 L 575.297,406.756 L 575.385,406.228 L 575.465,405.699 L 575.505,405.147 L 575.521,404.594 L 575.505,404.034 L 575.465,403.489 L 575.385,402.944 L 575.297,402.424 L 575.169,401.895 L 575.025,401.383 L 574.865,400.886 L 574.665,400.39 L 574.448,399.917 L 574.208,399.445 L 573.952,398.989 L 573.664,398.564 L 573.359,398.14 L 573.031,397.731 L 572.695,397.339 L 572.342,396.963 L 571.958,396.61 L 571.565,396.266 L 571.157,395.945 L 570.725,395.641 L 570.292,395.369 L 569.828,395.097 L 569.363,394.872 L 568.891,394.64 L 568.402,394.448 L 567.898,394.288 L 567.369,394.136 L 566.857,394.024 L 566.312,393.927 L 565.776,393.847 L 565.223,393.815 L 564.663,393.791 L 564.11,393.815 L 563.557,393.847 L 563.021,393.927 L 562.484,394.024 L 561.956,394.136 L 561.443,394.288 L 560.931,394.448 L 560.45,394.64 L 559.954,394.872 L 559.497,395.097 L 559.041,395.369 L 558.6,395.641 L 558.176,395.945 L 557.768,396.266 L 557.375,396.61 L 556.999,396.963 L 556.638,397.339 L 556.294,397.731 L 555.974,398.14 L 555.67,398.564 L 555.373,398.989 L 555.125,399.445 L 554.877,399.917 L 554.669,400.39 L 554.468,400.886 L 554.3,401.383 L 554.148,401.895 L 554.02,402.424 L 553.94,402.944 L 553.868,403.489 L 553.82,404.034 L 553.812,404.594"/>
    <path style="fill: none; fill-opacity:0; stroke-width: 0.06; stroke: #151619" d="M 555.325 404.594 L 555.341,404.106 L 555.373,403.641 L 555.437,403.185 L 555.517,402.728 L 555.621,402.272 L 555.75,401.839 L 555.894,401.399 L 556.07,400.983 L 556.246,400.574 L 556.454,400.174 L 556.679,399.789 L 556.927,399.397 L 557.191,399.037 L 557.455,398.692 L 557.752,398.348 L 558.072,398.036 L 558.392,397.723 L 558.729,397.435 L 559.081,397.147 L 559.449,396.89 L 559.826,396.65 L 560.218,396.434 L 560.618,396.226 L 561.027,396.034 L 561.451,395.873 L 561.9,395.729 L 562.332,395.593 L 562.781,395.489 L 563.253,395.417 L 563.71,395.361 L 564.182,395.321 L 564.663,395.313 L 565.151,395.321 L 565.623,395.361 L 566.088,395.417 L 566.536,395.489 L 567.001,395.593 L 567.441,395.729 L 567.866,395.873 L 568.298,396.034 L 568.715,396.226 L 569.115,396.434 L 569.507,396.65 L 569.876,396.89 L 570.252,397.147 L 570.604,397.435 L 570.941,397.723 L 571.261,398.036 L 571.565,398.348 L 571.87,398.692 L 572.15,399.037 L 572.406,399.397 L 572.646,399.789 L 572.871,400.174 L 573.071,400.574 L 573.271,400.983 L 573.431,401.399 L 573.575,401.839 L 573.712,402.272 L 573.816,402.728 L 573.896,403.185 L 573.952,403.641 L 573.984,404.106 L 574,404.594 L 573.984,405.075 L 573.952,405.539 L 573.896,405.996 L 573.816,406.452 L 573.712,406.9 L 573.575,407.349 L 573.431,407.781 L 573.271,408.198 L 573.071,408.606 L 572.871,409.007 L 572.646,409.399 L 572.406,409.775 L 572.15,410.144 L 571.87,410.496 L 571.565,410.832 L 571.261,411.153 L 570.941,411.457 L 570.604,411.753 L 570.252,412.026 L 569.876,412.29 L 569.507,412.53 L 569.115,412.754 L 568.715,412.955 L 568.298,413.147 L 567.866,413.307 L 567.441,413.459 L 567.001,413.579 L 566.536,413.683 L 566.088,413.763 L 565.623,413.827 L 565.151,413.859 L 564.663,413.867 L 564.182,413.859 L 563.71,413.827 L 563.253,413.763 L 562.781,413.683 L 562.332,413.579 L 561.9,413.459 L 561.451,413.307 L 561.027,413.147 L 560.618,412.955 L 560.218,412.754 L 559.826,412.53 L 559.449,412.29 L 559.081,412.026 L 558.729,411.753 L 558.392,411.457 L 558.072,411.153 L 557.752,410.832 L 557.455,410.496 L 557.191,410.144 L 556.927,409.775 L 556.679,409.399 L 556.454,409.007 L 556.246,408.606 L 556.07,408.198 L 555.894,407.781 L 555.75,407.349 L 555.621,406.9 L 555.517,406.452 L 555.437,405.996 L 555.373,405.539 L 555.341,405.075 L 555.325,404.594"/>
    <path style="fill: #ffffff" d="M 569.139 399.333 L 568.17,400.286 L 568.17,408.358 L 570.108,408.358 L 570.108,400.286 L 569.139,399.333 L 570.108,400.286 L 570.108,399.333 L 569.139,399.333z"/>
    <path style="fill: #ffffff" d="M 560.05 400.286 L 561.003,401.247 L 569.139,401.247 L 569.139,399.333 L 561.003,399.333 L 560.05,400.286 L 561.003,399.333 L 560.05,399.333 L 560.05,400.286z"/>
    <path style="fill: #ffffff" d="M 561.003 409.327 L 561.972,408.358 L 561.972,400.286 L 560.05,400.286 L 560.05,408.358 L 561.003,409.327 L 560.05,408.358 L 560.05,409.327 L 561.003,409.327z"/>
    <path style="fill: #ffffff" d="M 570.108 408.358 L 569.139,407.405 L 561.003,407.405 L 561.003,409.327 L 569.139,409.327 L 570.108,408.358 L 569.139,409.327 L 570.108,409.327 L 570.108,408.358z"/>
  </g>
  <text font-size="12.7998" style="fill: #000000;text-anchor:middle;font-family:sans-serif;font-style:normal;font-weight:normal" x="570.532" y="383.277">
    <tspan x="570.532" y="383.277">Exporter</tspan>
  </text>
  <text font-size="12.7998" style="fill: #000000;text-anchor:middle;font-family:sans-serif;font-style:normal;font-weight:normal" x="699.001" y="396.949">
    <tspan x="699.001" y="396.949">IPFIX/NetFlow</tspan>
  </text>
  <text font-size="12.7998" style="fill: #000000;text-anchor:start;font-family:sans-serif;font-style:normal;font-weight:normal" x="851.581" y="433.713">
    <tspan x="851.581" y="433.713">Round-robin</tspan>
    <tspan x="851.581" y="449.713">distribution</tspan>
  </text>
</svg>
