<?xml version="1.0" encoding="UTF-8" standalone="no"?>
<!DOCTYPE svg PUBLIC "-//W3C//DTD SVG 1.0//EN" "http://www.w3.org/TR/2001/PR-SVG-20010719/DTD/svg10.dtd">
<svg width="21cm" height="9cm" viewBox="548 357 403 178" xmlns="http://www.w3.org/2000/svg" xmlns:xlink="http://www.w3.org/1999/xlink">
  <rect style="fill: none; fill-opacity:0; stroke-width: 2; stroke: #000000" x="644.113" y="358.74" width="305.887" height="175.026"/>
  <text font-size="12.8" style="fill: #000000;text-anchor:middle;font-family:sans-serif;font-style:normal;font-weight:normal" x="798.07" y="377.156">
    <tspan x="798.07" y="377.156">Proxy</tspan>
  </text>
  <text font-size="12.8" style="fill: #000000;text-anchor:middle;font-family:sans-serif;font-style:normal;font-weight:normal" x="690.589" y="524.165">
    <tspan x="690.589" y="524.165">Subcollector 1</tspan>
  </text>
  <text font-size="12.8" style="fill: #000000;text-anchor:middle;font-family:sans-serif;font-style:normal;font-weight:normal" x="790.589" y="524.165">
    <tspan x="790.589" y="524.165">Subcollector 2</tspan>
  </text>
  <text font-size="12.8" style="fill: #000000;text-anchor:middle;font-family:sans-serif;font-style:normal;font-weight:normal" x="890.589" y="524.165">
    <tspan x="890.589" y="524.165">Subcollector 3</tspan>
  </text>
  <g>
    <path style="fill: none; fill-opacity:0; stroke-width: 0.02; stroke: #0078aa" d="M 589.995 397.443 L 590.048,397.349 L 590.108,397.263 L 590.161,397.17 L 590.214,397.077 L 590.247,396.984 L 590.287,396.89 L 590.307,396.784 L 590.334,396.691 L 590.341,396.578 L 590.354,396.485 L 590.354,396.392 L 590.341,396.285 L 590.334,396.179 L 590.314,396.079 L 590.287,395.986 L 590.261,395.886 L 590.221,395.786 L 590.174,395.7 L 590.121,395.6 L 590.061,395.52 L 590.001,395.427 L 589.928,395.341 L 589.855,395.261 L 589.775,395.181 L 589.702,395.101 L 589.596,395.035 L 589.502,394.968 L 589.416,394.901 L 589.303,394.835 L 589.19,394.768 L 589.083,394.722 L 588.964,394.675 L 588.851,394.622 L 588.731,394.582 L 588.611,394.549 L 588.485,394.522 L 588.352,394.496 L 588.225,394.476 L 588.099,394.456 L 587.966,394.449 L 587.833,394.436 L 587.713,394.436 L 587.58,394.436 L 587.44,394.449 L 587.307,394.456 L 587.174,394.482 L 587.055,394.516 L 586.922,394.542 L 586.802,394.569 L 586.675,394.602 L 586.562,394.655 L 586.443,394.702 L 586.336,394.748 L 586.223,394.802 L 586.13,394.868 L 586.017,394.935 L 585.924,395.001 L 585.837,395.081 L 585.751,395.154 L 585.658,395.227 L 585.591,395.314 L 585.505,395.4"/>
    <path style="fill: none; fill-opacity:0; stroke-width: 0.02; stroke: #aae6ff" d="M 590.041 397.476 L 590.101,397.389 L 590.148,397.303 L 590.201,397.216 L 590.247,397.13 L 590.274,397.037 L 590.307,396.95 L 590.327,396.857 L 590.341,396.764 L 590.354,396.671 L 590.367,396.578 L 590.367,396.485 L 590.354,396.392 L 590.341,396.285 L 590.314,396.212 L 590.294,396.112 L 590.261,396.019 L 590.221,395.933 L 590.181,395.839 L 590.128,395.76 L 590.075,395.673 L 590.015,395.6 L 589.955,395.513 L 589.875,395.434 L 589.795,395.36 L 589.709,395.287 L 589.629,395.227 L 589.536,395.161 L 589.436,395.094 L 589.343,395.041 L 589.25,394.995 L 589.137,394.935 L 589.024,394.888 L 588.917,394.855 L 588.797,394.815 L 588.684,394.788 L 588.565,394.748 L 588.438,394.729 L 588.318,394.709 L 588.192,394.702 L 588.079,394.689 L 587.939,394.682 L 587.82,394.682 L 587.693,394.689 L 587.58,394.689 L 587.447,394.709 L 587.334,394.729 L 587.208,394.748 L 587.088,394.768 L 586.968,394.815 L 586.848,394.855 L 586.735,394.888 L 586.629,394.935 L 586.516,394.981 L 586.416,395.035 L 586.316,395.094 L 586.223,395.154 L 586.13,395.221 L 586.05,395.287 L 585.964,395.354 L 585.884,395.427 L 585.811,395.5 L 585.751,395.58"/>
    <path style="fill: #00b4ff" d="M 571.662 394.436 L 573.658,392.686 L 587.879,392.686 L 586.13,394.436 L 571.662,394.436z"/>
    <path style="fill: none; fill-opacity:0; stroke-width: 0.02; stroke: #aae6ff" d="M 571.662 394.436 L 573.658,392.686 L 587.879,392.686 L 586.13,394.436 L 571.662,394.436"/>
    <path style="fill: #0096d4" d="M 571.662 394.436 L 586.13,394.436 L 586.13,397.183 L 571.662,397.183 L 571.662,394.436z"/>
    <path style="fill: none; fill-opacity:0; stroke-width: 0.02; stroke: #aae6ff" d="M 571.662 394.436 L 586.13,394.436 L 586.13,397.183 L 571.662,397.183 L 571.662,394.436"/>
    <path style="fill: #005a80" d="M 586.13 397.183 L 587.879,395.181 L 587.879,392.686 L 586.13,394.436 L 586.13,397.183z"/>
    <path style="fill: none; fill-opacity:0; stroke-width: 0.02; stroke: #aae6ff" d="M 586.13 397.183 L 587.879,395.181 L 587.879,392.686 L 586.13,394.436 L 586.13,397.183"/>
    <path style="fill: #000000" d="M 572.161 394.183 L 573.658,392.686 L 587.627,392.686 L 586.13,394.183 L 572.161,394.183z"/>
    <path style="fill: none; fill-opacity:0; stroke-width: 0.02; stroke: #000000" d="M 572.161 394.183 L 573.658,392.686 L 587.627,392.686 L 586.13,394.183 L 572.161,394.183"/>
    <path style="fill: #00b4ff" d="M 571.662 382.709 L 573.411,381.212 L 587.627,381.212 L 586.13,382.709 L 571.662,382.709z"/>
    <path style="fill: none; fill-opacity:0; stroke-width: 0.02; stroke: #aae6ff" d="M 571.662 382.709 L 573.411,381.212 L 587.627,381.212 L 586.13,382.709 L 571.662,382.709"/>
    <path style="fill: #0096d4" d="M 571.662 382.709 L 586.13,382.709 L 586.13,393.937 L 571.662,393.937 L 571.662,382.709z"/>
    <path style="fill: none; fill-opacity:0; stroke-width: 0.02; stroke: #aae6ff" d="M 571.662 382.709 L 586.11,382.709 L 586.11,393.93 L 571.662,393.93 L 571.662,382.709"/>
    <path style="fill: #ffffff" d="M 572.913 383.959 L 584.886,383.959 L 584.886,392.686 L 572.913,392.686 L 572.913,383.959z"/>
    <path style="fill: none; fill-opacity:0; stroke-width: 0.02; stroke: #003c55" d="M 572.913 383.959 L 584.879,383.959 L 584.879,392.673 L 572.913,392.673 L 572.913,383.959"/>
    <path style="fill: #005a80" d="M 586.13 393.684 L 587.627,392.188 L 587.627,381.212 L 586.13,382.709 L 586.13,393.684z"/>
    <path style="fill: none; fill-opacity:0; stroke-width: 0.02; stroke: #aae6ff" d="M 586.13 393.684 L 587.627,392.188 L 587.627,381.212 L 586.13,382.709 L 586.13,393.684"/>
    <path style="fill: #00b4ff" d="M 568.921 399.425 L 571.17,396.678 L 586.882,396.678 L 584.633,399.425 L 568.921,399.425z"/>
    <path style="fill: none; fill-opacity:0; stroke-width: 0.02; stroke: #aae6ff" d="M 568.921 399.425 L 571.17,396.678 L 586.882,396.678 L 584.633,399.425 L 568.921,399.425"/>
    <path style="fill: #005a80" d="M 584.633 399.924 L 586.882,397.682 L 586.882,396.678 L 584.633,399.425 L 584.633,399.924z"/>
    <path style="fill: none; fill-opacity:0; stroke-width: 0.02; stroke: #aae6ff" d="M 584.633 399.924 L 586.882,397.682 L 586.882,396.678 L 584.633,399.425 L 584.633,399.924"/>
    <path style="fill: #0096d4" d="M 568.921 399.425 L 584.633,399.425 L 584.633,399.924 L 568.921,399.924 L 568.921,399.425z"/>
    <path style="fill: none; fill-opacity:0; stroke-width: 0.02; stroke: #aae6ff" d="M 568.921 399.425 L 584.633,399.425 L 584.633,399.924 L 568.921,399.924 L 568.921,399.425"/>
    <path style="fill: #00b4ff" d="M 587.627 398.926 L 588.877,397.423 L 590.873,397.423 L 589.622,398.926 L 587.627,398.926z"/>
    <path style="fill: none; fill-opacity:0; stroke-width: 0.02; stroke: #aae6ff" d="M 587.627 398.926 L 588.877,397.423 L 590.873,397.423 L 589.622,398.926 L 587.627,398.926"/>
    <path style="fill: #005a80" d="M 589.622 399.425 L 590.873,398.427 L 590.873,397.423 L 589.622,398.926 L 589.622,399.425z"/>
    <path style="fill: none; fill-opacity:0; stroke-width: 0.02; stroke: #aae6ff" d="M 589.622 399.425 L 590.873,398.427 L 590.873,397.423 L 589.622,398.926 L 589.622,399.425"/>
    <path style="fill: #0096d4" d="M 587.627 398.926 L 589.622,398.926 L 589.622,399.425 L 587.627,399.425 L 587.627,398.926z"/>
    <path style="fill: none; fill-opacity:0; stroke-width: 0.02; stroke: #aae6ff" d="M 587.627 398.926 L 589.622,398.926 L 589.622,399.425 L 587.627,399.425 L 587.627,398.926"/>
    <path style="fill: none; fill-opacity:0; stroke-width: 0.02; stroke: #cf0e30" d="M 576.159 386.201 L 579.145,386.201 L 578.4,386.952 L 581.141,386.952"/>
    <path style="fill: none; fill-opacity:0; stroke-width: 0.02; stroke: #cf0e30" d="M 575.66 386.201 L 577.902,388.449 L 576.904,388.449 L 578.647,390.199"/>
    <path style="fill: none; fill-opacity:0; stroke-width: 0.02; stroke: #cf0e30" d="M 582.145 386.201 L 579.897,388.449 L 580.895,388.449 L 579.145,390.199"/>
    <path style="fill: #0078aa" d="M 577.396 387.066 L 577.396,387.039 L 577.383,386.992 L 577.376,386.972 L 577.356,386.946 L 577.336,386.906 L 577.316,386.879 L 577.276,386.853 L 577.243,386.819 L 577.203,386.786 L 577.157,386.766 L 577.11,386.74 L 577.07,386.706 L 577.004,386.686 L 576.944,386.66 L 576.884,386.64 L 576.817,386.613 L 576.744,386.593 L 576.664,386.573 L 576.591,386.56 L 576.525,386.54 L 576.438,386.52 L 576.345,386.513 L 576.259,386.493 L 576.179,386.474 L 576.079,386.474 L 575.999,386.454 L 575.906,386.454 L 575.806,386.454 L 575.713,386.447 L 575.62,386.447 L 575.527,386.447 L 575.527,386.447 L 575.44,386.447 L 575.334,386.447 L 575.241,386.454 L 575.154,386.454 L 575.055,386.454 L 574.968,386.474 L 574.875,386.474 L 574.788,386.493 L 574.709,386.513 L 574.622,386.52 L 574.536,386.54 L 574.462,386.56 L 574.383,386.573 L 574.309,386.593 L 574.243,386.613 L 574.17,386.64 L 574.117,386.66 L 574.043,386.686 L 573.99,386.706 L 573.95,386.74 L 573.904,386.766 L 573.851,386.786 L 573.811,386.819 L 573.777,386.853 L 573.744,386.879 L 573.717,386.906 L 573.698,386.946 L 573.678,386.972 L 573.671,386.992 L 573.658,387.039 L 573.658,387.066 L 573.658,387.066 L 573.658,387.092 L 573.671,387.132 L 573.678,387.159 L 573.698,387.192 L 573.717,387.225 L 573.744,387.252 L 573.777,387.285 L 573.811,387.305 L 573.851,387.338 L 573.904,387.365 L 573.95,387.398 L 573.99,387.425 L 574.043,387.445 L 574.117,387.471 L 574.17,387.491 L 574.243,387.518 L 574.309,387.538 L 574.383,387.558 L 574.462,387.578 L 574.536,387.591 L 574.622,387.611 L 574.709,387.618 L 574.788,387.638 L 574.875,387.651 L 574.968,387.658 L 575.055,387.671 L 575.154,387.678 L 575.241,387.678 L 575.334,387.691 L 575.44,387.691 L 575.527,387.691 L 575.527,387.691 L 575.62,387.691 L 575.713,387.691 L 575.806,387.678 L 575.906,387.678 L 575.999,387.671 L 576.079,387.658 L 576.179,387.651 L 576.259,387.638 L 576.345,387.618 L 576.438,387.611 L 576.525,387.591 L 576.591,387.578 L 576.664,387.558 L 576.744,387.538 L 576.817,387.518 L 576.884,387.491 L 576.944,387.471 L 577.004,387.445 L 577.07,387.425 L 577.11,387.398 L 577.157,387.365 L 577.203,387.338 L 577.243,387.305 L 577.276,387.285 L 577.316,387.252 L 577.336,387.225 L 577.356,387.192 L 577.376,387.159 L 577.383,387.132 L 577.396,387.092 L 577.396,387.066z"/>
    <path style="fill: none; fill-opacity:0; stroke-width: 0.02; stroke: #aae6ff" d="M 577.15 386.952 L 577.15,386.926 L 577.137,386.906 L 577.13,386.879 L 577.11,386.853 L 577.09,386.826 L 577.07,386.799 L 577.037,386.786 L 577.004,386.753 L 576.97,386.74 L 576.937,386.706 L 576.884,386.686 L 576.837,386.673 L 576.777,386.653 L 576.731,386.62 L 576.664,386.6 L 576.604,386.593 L 576.545,386.573 L 576.471,386.56 L 576.405,386.54 L 576.325,386.527 L 576.252,386.52 L 576.165,386.493 L 576.092,386.493 L 576.006,386.474 L 575.919,386.474 L 575.839,386.474 L 575.753,386.454 L 575.666,386.454 L 575.58,386.454 L 575.487,386.454 L 575.4,386.454 L 575.4,386.454 L 575.321,386.454 L 575.221,386.454 L 575.141,386.454 L 575.055,386.454 L 574.968,386.474 L 574.882,386.474 L 574.802,386.474 L 574.715,386.493 L 574.642,386.493 L 574.556,386.52 L 574.489,386.527 L 574.403,386.54 L 574.336,386.56 L 574.263,386.573 L 574.203,386.593 L 574.143,386.6 L 574.083,386.62 L 574.03,386.653 L 573.97,386.673 L 573.924,386.686 L 573.877,386.706 L 573.837,386.74 L 573.804,386.753 L 573.777,386.786 L 573.737,386.799 L 573.717,386.826 L 573.698,386.853 L 573.678,386.879 L 573.671,386.906 L 573.658,386.926 L 573.658,386.952 L 573.658,386.952 L 573.658,386.972 L 573.671,386.992 L 573.678,387.026 L 573.698,387.059 L 573.717,387.079 L 573.737,387.099 L 573.777,387.119 L 573.804,387.152 L 573.837,387.172 L 573.877,387.199 L 573.924,387.219 L 573.97,387.238 L 574.03,387.252 L 574.083,387.285 L 574.143,387.305 L 574.203,387.305 L 574.263,387.325 L 574.336,387.352 L 574.403,387.365 L 574.489,387.378 L 574.556,387.385 L 574.642,387.405 L 574.715,387.418 L 574.802,387.425 L 574.882,387.431 L 574.968,387.431 L 575.055,387.445 L 575.141,387.445 L 575.221,387.451 L 575.321,387.451 L 575.4,387.451 L 575.4,387.451 L 575.487,387.451 L 575.58,387.451 L 575.666,387.445 L 575.753,387.445 L 575.839,387.431 L 575.919,387.431 L 576.006,387.425 L 576.092,387.418 L 576.165,387.405 L 576.252,387.385 L 576.325,387.378 L 576.405,387.365 L 576.471,387.352 L 576.545,387.325 L 576.604,387.305 L 576.664,387.305 L 576.731,387.285 L 576.777,387.252 L 576.837,387.238 L 576.884,387.219 L 576.937,387.199 L 576.97,387.172 L 577.004,387.152 L 577.037,387.119 L 577.07,387.099 L 577.09,387.079 L 577.11,387.059 L 577.13,387.026 L 577.137,386.992 L 577.15,386.972 L 577.15,386.952"/>
    <path style="fill: #0078aa" d="M 573.658 386.201 L 573.658,387.199 L 577.403,387.199 L 577.403,386.201 L 573.658,386.201z"/>
    <path style="fill: #00b4ff" d="M 577.396 386.068 L 577.396,386.041 L 577.383,385.995 L 577.376,385.975 L 577.356,385.948 L 577.336,385.908 L 577.316,385.882 L 577.276,385.848 L 577.243,385.822 L 577.203,385.788 L 577.157,385.768 L 577.11,385.735 L 577.07,385.709 L 577.004,385.689 L 576.944,385.662 L 576.884,385.642 L 576.817,385.615 L 576.744,385.595 L 576.664,385.576 L 576.591,385.556 L 576.525,385.542 L 576.438,385.522 L 576.345,385.509 L 576.259,385.489 L 576.179,385.476 L 576.079,385.476 L 575.999,385.456 L 575.906,385.456 L 575.806,385.456 L 575.713,385.436 L 575.62,385.436 L 575.527,385.436 L 575.527,385.436 L 575.44,385.436 L 575.334,385.436 L 575.241,385.456 L 575.154,385.456 L 575.055,385.456 L 574.968,385.476 L 574.875,385.476 L 574.788,385.489 L 574.709,385.509 L 574.622,385.522 L 574.536,385.542 L 574.462,385.556 L 574.383,385.576 L 574.309,385.595 L 574.243,385.615 L 574.17,385.642 L 574.117,385.662 L 574.043,385.689 L 573.99,385.709 L 573.95,385.735 L 573.904,385.768 L 573.851,385.788 L 573.811,385.822 L 573.777,385.848 L 573.744,385.882 L 573.717,385.908 L 573.698,385.948 L 573.678,385.975 L 573.671,385.995 L 573.658,386.041 L 573.658,386.068 L 573.658,386.068 L 573.658,386.094 L 573.671,386.134 L 573.678,386.161 L 573.698,386.187 L 573.717,386.227 L 573.744,386.254 L 573.777,386.287 L 573.811,386.307 L 573.851,386.34 L 573.904,386.367 L 573.95,386.4 L 573.99,386.427 L 574.043,386.447 L 574.117,386.474 L 574.17,386.493 L 574.243,386.52 L 574.309,386.54 L 574.383,386.56 L 574.462,386.573 L 574.536,386.593 L 574.622,386.613 L 574.709,386.62 L 574.788,386.64 L 574.875,386.653 L 574.968,386.66 L 575.055,386.673 L 575.154,386.68 L 575.241,386.68 L 575.334,386.686 L 575.44,386.686 L 575.527,386.686 L 575.527,386.686 L 575.62,386.686 L 575.713,386.686 L 575.806,386.68 L 575.906,386.68 L 575.999,386.673 L 576.079,386.66 L 576.179,386.653 L 576.259,386.64 L 576.345,386.62 L 576.438,386.613 L 576.525,386.593 L 576.591,386.573 L 576.664,386.56 L 576.744,386.54 L 576.817,386.52 L 576.884,386.493 L 576.944,386.474 L 577.004,386.447 L 577.07,386.427 L 577.11,386.4 L 577.157,386.367 L 577.203,386.34 L 577.243,386.307 L 577.276,386.287 L 577.316,386.254 L 577.336,386.227 L 577.356,386.187 L 577.376,386.161 L 577.383,386.134 L 577.396,386.094 L 577.396,386.068z"/>
    <path style="fill: none; fill-opacity:0; stroke-width: 0.02; stroke: #aae6ff" d="M 577.15 385.955 L 577.15,385.928 L 577.137,385.908 L 577.13,385.882 L 577.11,385.848 L 577.09,385.828 L 577.07,385.802 L 577.037,385.782 L 577.004,385.755 L 576.97,385.735 L 576.937,385.709 L 576.884,385.689 L 576.837,385.662 L 576.777,385.655 L 576.731,385.622 L 576.664,385.602 L 576.604,385.595 L 576.545,385.576 L 576.471,385.556 L 576.405,385.542 L 576.325,385.529 L 576.252,385.522 L 576.165,385.496 L 576.092,385.489 L 576.006,385.476 L 575.919,385.476 L 575.839,385.476 L 575.753,385.456 L 575.666,385.456 L 575.58,385.456 L 575.487,385.456 L 575.4,385.456 L 575.4,385.456 L 575.321,385.456 L 575.221,385.456 L 575.141,385.456 L 575.055,385.456 L 574.968,385.476 L 574.882,385.476 L 574.802,385.476 L 574.715,385.489 L 574.642,385.496 L 574.556,385.522 L 574.489,385.529 L 574.403,385.542 L 574.336,385.556 L 574.263,385.576 L 574.203,385.595 L 574.143,385.602 L 574.083,385.622 L 574.03,385.655 L 573.97,385.662 L 573.924,385.689 L 573.877,385.709 L 573.837,385.735 L 573.804,385.755 L 573.777,385.782 L 573.737,385.802 L 573.717,385.828 L 573.698,385.848 L 573.678,385.882 L 573.671,385.908 L 573.658,385.928 L 573.658,385.955 L 573.658,385.955 L 573.658,385.975 L 573.671,385.995 L 573.678,386.028 L 573.698,386.061 L 573.717,386.074 L 573.737,386.101 L 573.777,386.121 L 573.804,386.154 L 573.837,386.174 L 573.877,386.201 L 573.924,386.221 L 573.97,386.234 L 574.03,386.254 L 574.083,386.287 L 574.143,386.301 L 574.203,386.307 L 574.263,386.327 L 574.336,386.347 L 574.403,386.367 L 574.489,386.38 L 574.556,386.387 L 574.642,386.407 L 574.715,386.414 L 574.802,386.427 L 574.882,386.434 L 574.968,386.434 L 575.055,386.447 L 575.141,386.447 L 575.221,386.454 L 575.321,386.454 L 575.4,386.454 L 575.4,386.454 L 575.487,386.454 L 575.58,386.454 L 575.666,386.447 L 575.753,386.447 L 575.839,386.434 L 575.919,386.434 L 576.006,386.427 L 576.092,386.414 L 576.165,386.407 L 576.252,386.387 L 576.325,386.38 L 576.405,386.367 L 576.471,386.347 L 576.545,386.327 L 576.604,386.307 L 576.664,386.301 L 576.731,386.287 L 576.777,386.254 L 576.837,386.234 L 576.884,386.221 L 576.937,386.201 L 576.97,386.174 L 577.004,386.154 L 577.037,386.121 L 577.07,386.101 L 577.09,386.074 L 577.11,386.061 L 577.13,386.028 L 577.137,385.995 L 577.15,385.975 L 577.15,385.955"/>
    <path style="fill: #000000" d="M 575.66 385.955 L 575.906,386.201 L 576.405,385.955 L 576.904,385.955 L 576.658,385.709 L 575.906,385.709 L 576.159,385.709 L 575.66,385.955z"/>
    <path style="fill: #000000" d="M 575.4 386.201 L 575.161,386.201 L 574.655,386.454 L 574.156,386.454 L 574.403,386.7 L 575.161,386.7 L 574.902,386.454 L 575.4,386.201z"/>
    <path style="fill: #000000" d="M 574.403 385.709 L 574.655,385.709 L 575.161,385.955 L 575.4,385.955 L 575.4,386.201 L 574.655,386.201 L 574.902,385.955 L 574.403,385.709z"/>
    <path style="fill: #000000" d="M 576.658 386.454 L 576.405,386.7 L 575.906,386.454 L 575.4,386.454 L 575.66,386.201 L 576.405,386.201 L 576.159,386.201 L 576.658,386.454z"/>
    <path style="fill: #ffffff" d="M 575.66 385.955 L 575.906,386.201 L 576.405,385.955 L 576.904,385.955 L 576.658,385.709 L 575.906,385.709 L 576.159,385.955 L 575.66,385.955z"/>
    <path style="fill: #ffffff" d="M 575.4 386.454 L 575.161,386.201 L 574.655,386.454 L 574.156,386.454 L 574.403,386.7 L 575.161,386.7 L 574.902,386.454 L 575.4,386.454z"/>
    <path style="fill: #ffffff" d="M 574.403 385.955 L 574.655,385.709 L 575.161,385.955 L 575.66,385.955 L 575.4,386.201 L 574.655,386.201 L 574.902,385.955 L 574.403,385.955z"/>
    <path style="fill: #ffffff" d="M 576.658 386.7 L 576.405,386.7 L 575.906,386.454 L 575.66,386.454 L 575.66,386.201 L 576.405,386.201 L 576.159,386.454 L 576.658,386.7z"/>
    <path style="fill: none; fill-opacity:0; stroke-width: 0.02; stroke: #aae6ff" d="M 573.658 385.955 L 573.658,386.952"/>
    <path style="fill: none; fill-opacity:0; stroke-width: 0.02; stroke: #aae6ff" d="M 577.15 385.955 L 577.15,386.952"/>
    <path style="fill: #0078aa" d="M 584.121 387.066 L 584.121,387.039 L 584.114,386.992 L 584.101,386.972 L 584.088,386.946 L 584.068,386.906 L 584.035,386.879 L 584.008,386.853 L 583.968,386.819 L 583.935,386.786 L 583.888,386.766 L 583.842,386.74 L 583.802,386.706 L 583.735,386.686 L 583.675,386.66 L 583.616,386.64 L 583.536,386.613 L 583.469,386.593 L 583.396,386.573 L 583.323,386.56 L 583.243,386.54 L 583.163,386.52 L 583.077,386.513 L 582.99,386.493 L 582.904,386.474 L 582.811,386.474 L 582.724,386.454 L 582.638,386.454 L 582.538,386.454 L 582.445,386.447 L 582.352,386.447 L 582.265,386.447 L 582.265,386.447 L 582.159,386.447 L 582.066,386.447 L 581.972,386.454 L 581.886,386.454 L 581.786,386.454 L 581.7,386.474 L 581.607,386.474 L 581.52,386.493 L 581.434,386.513 L 581.354,386.52 L 581.267,386.54 L 581.188,386.56 L 581.114,386.573 L 581.041,386.593 L 580.975,386.613 L 580.902,386.64 L 580.848,386.66 L 580.775,386.686 L 580.729,386.706 L 580.682,386.74 L 580.622,386.766 L 580.576,386.786 L 580.542,386.819 L 580.502,386.853 L 580.476,386.879 L 580.449,386.906 L 580.436,386.946 L 580.409,386.972 L 580.396,386.992 L 580.396,387.039 L 580.396,387.066 L 580.396,387.066 L 580.396,387.092 L 580.396,387.132 L 580.409,387.159 L 580.436,387.192 L 580.449,387.225 L 580.476,387.252 L 580.502,387.285 L 580.542,387.305 L 580.576,387.338 L 580.622,387.365 L 580.682,387.398 L 580.729,387.425 L 580.775,387.445 L 580.848,387.471 L 580.902,387.491 L 580.975,387.518 L 581.041,387.538 L 581.114,387.558 L 581.188,387.578 L 581.267,387.591 L 581.354,387.611 L 581.434,387.618 L 581.52,387.638 L 581.607,387.651 L 581.7,387.658 L 581.786,387.671 L 581.886,387.678 L 581.972,387.678 L 582.066,387.691 L 582.159,387.691 L 582.265,387.691 L 582.265,387.691 L 582.352,387.691 L 582.445,387.691 L 582.538,387.678 L 582.638,387.678 L 582.724,387.671 L 582.811,387.658 L 582.904,387.651 L 582.99,387.638 L 583.077,387.618 L 583.163,387.611 L 583.243,387.591 L 583.323,387.578 L 583.396,387.558 L 583.469,387.538 L 583.536,387.518 L 583.616,387.491 L 583.675,387.471 L 583.735,387.445 L 583.802,387.425 L 583.842,387.398 L 583.888,387.365 L 583.935,387.338 L 583.968,387.305 L 584.008,387.285 L 584.035,387.252 L 584.068,387.225 L 584.088,387.192 L 584.101,387.159 L 584.114,387.132 L 584.121,387.092 L 584.121,387.066z"/>
    <path style="fill: none; fill-opacity:0; stroke-width: 0.02; stroke: #aae6ff" d="M 583.888 386.952 L 583.888,386.926 L 583.882,386.906 L 583.868,386.879 L 583.848,386.853 L 583.828,386.826 L 583.808,386.799 L 583.775,386.786 L 583.742,386.753 L 583.715,386.74 L 583.675,386.706 L 583.622,386.686 L 583.576,386.673 L 583.516,386.653 L 583.469,386.62 L 583.403,386.6 L 583.343,386.593 L 583.283,386.573 L 583.216,386.56 L 583.143,386.54 L 583.063,386.527 L 582.99,386.52 L 582.904,386.493 L 582.831,386.493 L 582.744,386.474 L 582.658,386.474 L 582.578,386.474 L 582.491,386.454 L 582.405,386.454 L 582.318,386.454 L 582.225,386.454 L 582.145,386.454 L 582.145,386.454 L 582.059,386.454 L 581.972,386.454 L 581.886,386.454 L 581.793,386.454 L 581.706,386.474 L 581.627,386.474 L 581.54,386.474 L 581.454,386.493 L 581.387,386.493 L 581.294,386.52 L 581.227,386.527 L 581.141,386.54 L 581.074,386.56 L 581.001,386.573 L 580.948,386.593 L 580.888,386.6 L 580.822,386.62 L 580.768,386.653 L 580.709,386.673 L 580.662,386.686 L 580.615,386.706 L 580.576,386.74 L 580.542,386.753 L 580.516,386.786 L 580.476,386.799 L 580.456,386.826 L 580.436,386.853 L 580.416,386.879 L 580.409,386.906 L 580.396,386.926 L 580.396,386.952 L 580.396,386.952 L 580.396,386.972 L 580.409,386.992 L 580.416,387.026 L 580.436,387.059 L 580.456,387.079 L 580.476,387.099 L 580.516,387.119 L 580.542,387.152 L 580.576,387.172 L 580.615,387.199 L 580.662,387.219 L 580.709,387.238 L 580.768,387.252 L 580.822,387.285 L 580.888,387.305 L 580.948,387.305 L 581.001,387.325 L 581.074,387.352 L 581.141,387.365 L 581.227,387.378 L 581.294,387.385 L 581.387,387.405 L 581.454,387.418 L 581.54,387.425 L 581.627,387.431 L 581.706,387.431 L 581.793,387.445 L 581.886,387.445 L 581.972,387.451 L 582.059,387.451 L 582.145,387.451 L 582.145,387.451 L 582.225,387.451 L 582.318,387.451 L 582.405,387.445 L 582.491,387.445 L 582.578,387.431 L 582.658,387.431 L 582.744,387.425 L 582.831,387.418 L 582.904,387.405 L 582.99,387.385 L 583.063,387.378 L 583.143,387.365 L 583.216,387.352 L 583.283,387.325 L 583.343,387.305 L 583.403,387.305 L 583.469,387.285 L 583.516,387.252 L 583.576,387.238 L 583.622,387.219 L 583.675,387.199 L 583.715,387.172 L 583.742,387.152 L 583.775,387.119 L 583.808,387.099 L 583.828,387.079 L 583.848,387.059 L 583.868,387.026 L 583.882,386.992 L 583.888,386.972 L 583.888,386.952"/>
    <path style="fill: #0078aa" d="M 580.396 386.201 L 580.396,387.199 L 584.134,387.199 L 584.134,386.201 L 580.396,386.201z"/>
    <path style="fill: #00b4ff" d="M 584.121 386.068 L 584.121,386.041 L 584.114,385.995 L 584.101,385.975 L 584.088,385.948 L 584.068,385.908 L 584.035,385.882 L 584.008,385.848 L 583.968,385.822 L 583.935,385.788 L 583.888,385.768 L 583.842,385.735 L 583.802,385.709 L 583.735,385.689 L 583.675,385.662 L 583.616,385.642 L 583.536,385.615 L 583.469,385.595 L 583.396,385.576 L 583.323,385.556 L 583.243,385.542 L 583.163,385.522 L 583.077,385.509 L 582.99,385.489 L 582.904,385.476 L 582.811,385.476 L 582.724,385.456 L 582.638,385.456 L 582.538,385.456 L 582.445,385.436 L 582.352,385.436 L 582.265,385.436 L 582.265,385.436 L 582.159,385.436 L 582.066,385.436 L 581.972,385.456 L 581.886,385.456 L 581.786,385.456 L 581.7,385.476 L 581.607,385.476 L 581.52,385.489 L 581.434,385.509 L 581.354,385.522 L 581.267,385.542 L 581.188,385.556 L 581.114,385.576 L 581.041,385.595 L 580.975,385.615 L 580.902,385.642 L 580.848,385.662 L 580.775,385.689 L 580.729,385.709 L 580.682,385.735 L 580.622,385.768 L 580.576,385.788 L 580.542,385.822 L 580.502,385.848 L 580.476,385.882 L 580.449,385.908 L 580.436,385.948 L 580.409,385.975 L 580.396,385.995 L 580.396,386.041 L 580.396,386.068 L 580.396,386.068 L 580.396,386.094 L 580.396,386.134 L 580.409,386.161 L 580.436,386.187 L 580.449,386.227 L 580.476,386.254 L 580.502,386.287 L 580.542,386.307 L 580.576,386.34 L 580.622,386.367 L 580.682,386.4 L 580.729,386.427 L 580.775,386.447 L 580.848,386.474 L 580.902,386.493 L 580.975,386.52 L 581.041,386.54 L 581.114,386.56 L 581.188,386.573 L 581.267,386.593 L 581.354,386.613 L 581.434,386.62 L 581.52,386.64 L 581.607,386.653 L 581.7,386.66 L 581.786,386.673 L 581.886,386.68 L 581.972,386.68 L 582.066,386.686 L 582.159,386.686 L 582.265,386.686 L 582.265,386.686 L 582.352,386.686 L 582.445,386.686 L 582.538,386.68 L 582.638,386.68 L 582.724,386.673 L 582.811,386.66 L 582.904,386.653 L 582.99,386.64 L 583.077,386.62 L 583.163,386.613 L 583.243,386.593 L 583.323,386.573 L 583.396,386.56 L 583.469,386.54 L 583.536,386.52 L 583.616,386.493 L 583.675,386.474 L 583.735,386.447 L 583.802,386.427 L 583.842,386.4 L 583.888,386.367 L 583.935,386.34 L 583.968,386.307 L 584.008,386.287 L 584.035,386.254 L 584.068,386.227 L 584.088,386.187 L 584.101,386.161 L 584.114,386.134 L 584.121,386.094 L 584.121,386.068z"/>
    <path style="fill: none; fill-opacity:0; stroke-width: 0.02; stroke: #aae6ff" d="M 583.888 385.955 L 583.888,385.928 L 583.882,385.908 L 583.868,385.882 L 583.848,385.848 L 583.828,385.828 L 583.808,385.802 L 583.775,385.782 L 583.742,385.755 L 583.715,385.735 L 583.675,385.709 L 583.622,385.689 L 583.576,385.662 L 583.516,385.655 L 583.469,385.622 L 583.403,385.602 L 583.343,385.595 L 583.283,385.576 L 583.216,385.556 L 583.143,385.542 L 583.063,385.529 L 582.99,385.522 L 582.904,385.496 L 582.831,385.489 L 582.744,385.476 L 582.658,385.476 L 582.578,385.476 L 582.491,385.456 L 582.405,385.456 L 582.318,385.456 L 582.225,385.456 L 582.145,385.456 L 582.145,385.456 L 582.059,385.456 L 581.972,385.456 L 581.886,385.456 L 581.793,385.456 L 581.706,385.476 L 581.627,385.476 L 581.54,385.476 L 581.454,385.489 L 581.387,385.496 L 581.294,385.522 L 581.227,385.529 L 581.141,385.542 L 581.074,385.556 L 581.001,385.576 L 580.948,385.595 L 580.888,385.602 L 580.822,385.622 L 580.768,385.655 L 580.709,385.662 L 580.662,385.689 L 580.615,385.709 L 580.576,385.735 L 580.542,385.755 L 580.516,385.782 L 580.476,385.802 L 580.456,385.828 L 580.436,385.848 L 580.416,385.882 L 580.409,385.908 L 580.396,385.928 L 580.396,385.955 L 580.396,385.955 L 580.396,385.975 L 580.409,385.995 L 580.416,386.028 L 580.436,386.061 L 580.456,386.074 L 580.476,386.101 L 580.516,386.121 L 580.542,386.154 L 580.576,386.174 L 580.615,386.201 L 580.662,386.221 L 580.709,386.234 L 580.768,386.254 L 580.822,386.287 L 580.888,386.301 L 580.948,386.307 L 581.001,386.327 L 581.074,386.347 L 581.141,386.367 L 581.227,386.38 L 581.294,386.387 L 581.387,386.407 L 581.454,386.414 L 581.54,386.427 L 581.627,386.434 L 581.706,386.434 L 581.793,386.447 L 581.886,386.447 L 581.972,386.454 L 582.059,386.454 L 582.145,386.454 L 582.145,386.454 L 582.225,386.454 L 582.318,386.454 L 582.405,386.447 L 582.491,386.447 L 582.578,386.434 L 582.658,386.434 L 582.744,386.427 L 582.831,386.414 L 582.904,386.407 L 582.99,386.387 L 583.063,386.38 L 583.143,386.367 L 583.216,386.347 L 583.283,386.327 L 583.343,386.307 L 583.403,386.301 L 583.469,386.287 L 583.516,386.254 L 583.576,386.234 L 583.622,386.221 L 583.675,386.201 L 583.715,386.174 L 583.742,386.154 L 583.775,386.121 L 583.808,386.101 L 583.828,386.074 L 583.848,386.061 L 583.868,386.028 L 583.882,385.995 L 583.888,385.975 L 583.888,385.955"/>
    <path style="fill: #000000" d="M 582.392 385.955 L 582.638,386.201 L 583.137,385.955 L 583.635,385.955 L 583.389,385.709 L 582.638,385.709 L 582.89,385.709 L 582.392,385.955z"/>
    <path style="fill: #000000" d="M 582.145 386.201 L 581.893,386.201 L 581.394,386.454 L 580.895,386.454 L 581.141,386.7 L 581.893,386.7 L 581.64,386.454 L 582.145,386.201z"/>
    <path style="fill: #000000" d="M 581.141 385.709 L 581.394,385.709 L 581.893,385.955 L 582.392,385.955 L 582.145,386.201 L 581.394,386.201 L 581.64,385.955 L 581.141,385.709z"/>
    <path style="fill: #000000" d="M 583.635 386.454 L 583.137,386.7 L 582.638,386.454 L 582.392,386.454 L 582.392,386.201 L 583.137,386.201 L 582.89,386.201 L 583.635,386.454z"/>
    <path style="fill: #ffffff" d="M 582.392 385.955 L 582.638,386.201 L 583.389,385.955 L 583.635,385.955 L 583.389,385.709 L 582.638,385.709 L 582.89,385.955 L 582.392,385.955z"/>
    <path style="fill: #ffffff" d="M 582.145 386.454 L 581.893,386.201 L 581.394,386.454 L 581.141,386.454 L 581.141,386.7 L 581.893,386.7 L 581.64,386.454 L 582.145,386.454z"/>
    <path style="fill: #ffffff" d="M 581.141 385.955 L 581.394,385.709 L 582.145,385.955 L 582.392,385.955 L 582.145,386.201 L 581.394,386.201 L 581.64,385.955 L 581.141,385.955z"/>
    <path style="fill: #ffffff" d="M 583.635 386.7 L 583.389,386.7 L 582.638,386.454 L 582.392,386.454 L 582.392,386.201 L 583.137,386.201 L 582.89,386.454 L 583.635,386.7z"/>
    <path style="fill: none; fill-opacity:0; stroke-width: 0.02; stroke: #aae6ff" d="M 580.396 385.955 L 580.396,386.952"/>
    <path style="fill: none; fill-opacity:0; stroke-width: 0.02; stroke: #aae6ff" d="M 584.134 385.955 L 584.134,386.952"/>
    <path style="fill: #0078aa" d="M 580.622 390.811 L 580.622,390.777 L 580.615,390.744 L 580.609,390.717 L 580.596,390.684 L 580.569,390.651 L 580.556,390.611 L 580.516,390.591 L 580.482,390.564 L 580.449,390.538 L 580.409,390.505 L 580.363,390.478 L 580.316,390.445 L 580.263,390.425 L 580.203,390.405 L 580.143,390.385 L 580.077,390.358 L 580.023,390.338 L 579.944,390.318 L 579.877,390.298 L 579.811,390.278 L 579.731,390.258 L 579.644,390.252 L 579.571,390.232 L 579.485,390.225 L 579.398,390.212 L 579.312,390.205 L 579.232,390.199 L 579.145,390.199 L 579.066,390.185 L 578.966,390.185 L 578.879,390.185 L 578.879,390.185 L 578.8,390.185 L 578.7,390.185 L 578.62,390.199 L 578.533,390.199 L 578.447,390.205 L 578.361,390.212 L 578.281,390.225 L 578.194,390.232 L 578.121,390.252 L 578.035,390.258 L 577.955,390.278 L 577.882,390.298 L 577.815,390.318 L 577.742,390.338 L 577.689,390.358 L 577.615,390.385 L 577.569,390.405 L 577.502,390.425 L 577.449,390.445 L 577.403,390.478 L 577.356,390.505 L 577.316,390.538 L 577.276,390.564 L 577.25,390.591 L 577.21,390.611 L 577.196,390.651 L 577.176,390.684 L 577.157,390.717 L 577.15,390.744 L 577.137,390.777 L 577.137,390.811 L 577.137,390.811 L 577.137,390.837 L 577.15,390.877 L 577.157,390.904 L 577.176,390.924 L 577.196,390.964 L 577.21,390.997 L 577.25,391.023 L 577.276,391.057 L 577.316,391.083 L 577.356,391.11 L 577.403,391.13 L 577.449,391.17 L 577.502,391.183 L 577.569,391.216 L 577.615,391.23 L 577.689,391.256 L 577.742,391.276 L 577.815,391.296 L 577.882,391.316 L 577.955,391.336 L 578.035,391.356 L 578.121,391.363 L 578.194,391.383 L 578.281,391.396 L 578.361,391.403 L 578.447,391.409 L 578.533,391.423 L 578.62,391.423 L 578.7,391.423 L 578.8,391.423 L 578.879,391.423 L 578.879,391.423 L 578.966,391.423 L 579.066,391.423 L 579.145,391.423 L 579.232,391.423 L 579.312,391.409 L 579.398,391.403 L 579.485,391.396 L 579.571,391.383 L 579.644,391.363 L 579.731,391.356 L 579.811,391.336 L 579.877,391.316 L 579.944,391.296 L 580.023,391.276 L 580.077,391.256 L 580.143,391.23 L 580.203,391.216 L 580.263,391.183 L 580.316,391.17 L 580.363,391.13 L 580.409,391.11 L 580.449,391.083 L 580.482,391.057 L 580.516,391.023 L 580.556,390.997 L 580.569,390.964 L 580.596,390.924 L 580.609,390.904 L 580.615,390.877 L 580.622,390.837 L 580.622,390.811z"/>
    <path style="fill: none; fill-opacity:0; stroke-width: 0.02; stroke: #aae6ff" d="M 580.396 390.697 L 580.396,390.664 L 580.389,390.651 L 580.369,390.611 L 580.349,390.591 L 580.329,390.571 L 580.316,390.544 L 580.276,390.525 L 580.25,390.498 L 580.21,390.478 L 580.17,390.445 L 580.123,390.425 L 580.077,390.411 L 580.023,390.391 L 579.964,390.365 L 579.91,390.345 L 579.851,390.338 L 579.784,390.318 L 579.711,390.298 L 579.644,390.278 L 579.571,390.272 L 579.491,390.258 L 579.412,390.245 L 579.332,390.232 L 579.252,390.225 L 579.165,390.212 L 579.079,390.212 L 578.992,390.205 L 578.913,390.205 L 578.826,390.199 L 578.733,390.199 L 578.647,390.199 L 578.647,390.199 L 578.567,390.199 L 578.467,390.199 L 578.38,390.205 L 578.294,390.205 L 578.214,390.212 L 578.128,390.212 L 578.041,390.225 L 577.955,390.232 L 577.882,390.245 L 577.795,390.258 L 577.729,390.272 L 577.649,390.278 L 577.582,390.298 L 577.502,390.318 L 577.449,390.338 L 577.383,390.345 L 577.323,390.365 L 577.276,390.391 L 577.21,390.411 L 577.163,390.425 L 577.117,390.445 L 577.083,390.478 L 577.043,390.498 L 577.023,390.525 L 576.984,390.544 L 576.957,390.571 L 576.944,390.591 L 576.924,390.611 L 576.91,390.651 L 576.904,390.664 L 576.904,390.697 L 576.904,390.697 L 576.904,390.724 L 576.91,390.744 L 576.924,390.771 L 576.944,390.797 L 576.957,390.817 L 576.984,390.844 L 577.023,390.864 L 577.043,390.89 L 577.083,390.91 L 577.117,390.944 L 577.163,390.957 L 577.21,390.977 L 577.276,390.997 L 577.323,391.023 L 577.383,391.043 L 577.449,391.057 L 577.502,391.07 L 577.582,391.09 L 577.649,391.11 L 577.729,391.11 L 577.795,391.13 L 577.882,391.15 L 577.955,391.156 L 578.041,391.17 L 578.128,391.176 L 578.214,391.176 L 578.294,391.183 L 578.38,391.183 L 578.467,391.196 L 578.567,391.196 L 578.647,391.196 L 578.647,391.196 L 578.733,391.196 L 578.826,391.196 L 578.913,391.183 L 578.992,391.183 L 579.079,391.176 L 579.165,391.176 L 579.252,391.17 L 579.332,391.156 L 579.412,391.15 L 579.491,391.13 L 579.571,391.11 L 579.644,391.11 L 579.711,391.09 L 579.784,391.07 L 579.851,391.057 L 579.91,391.043 L 579.964,391.023 L 580.023,390.997 L 580.077,390.977 L 580.123,390.957 L 580.17,390.944 L 580.21,390.91 L 580.25,390.89 L 580.276,390.864 L 580.316,390.844 L 580.329,390.817 L 580.349,390.797 L 580.369,390.771 L 580.389,390.744 L 580.396,390.724 L 580.396,390.697"/>
    <path style="fill: #0078aa" d="M 577.15 389.939 L 577.15,390.944 L 580.642,390.944 L 580.642,389.939 L 577.15,389.939z"/>
    <path style="fill: #00b4ff" d="M 580.622 390.052 L 580.622,390.026 L 580.615,389.986 L 580.609,389.959 L 580.596,389.926 L 580.569,389.893 L 580.556,389.866 L 580.516,389.839 L 580.482,389.799 L 580.449,389.78 L 580.409,389.753 L 580.363,389.726 L 580.316,389.693 L 580.263,389.68 L 580.203,389.646 L 580.143,389.633 L 580.077,389.593 L 580.023,389.58 L 579.944,389.567 L 579.877,389.547 L 579.811,389.527 L 579.731,389.507 L 579.644,389.5 L 579.571,389.48 L 579.485,389.467 L 579.398,389.46 L 579.312,389.447 L 579.232,389.44 L 579.145,389.44 L 579.066,389.427 L 578.966,389.427 L 578.879,389.427 L 578.879,389.427 L 578.8,389.427 L 578.7,389.427 L 578.62,389.44 L 578.533,389.44 L 578.447,389.447 L 578.361,389.46 L 578.281,389.467 L 578.194,389.48 L 578.121,389.5 L 578.035,389.507 L 577.955,389.527 L 577.882,389.547 L 577.815,389.567 L 577.742,389.58 L 577.689,389.593 L 577.615,389.633 L 577.569,389.646 L 577.502,389.68 L 577.449,389.693 L 577.403,389.726 L 577.356,389.753 L 577.316,389.78 L 577.276,389.799 L 577.25,389.839 L 577.21,389.866 L 577.196,389.893 L 577.176,389.926 L 577.157,389.959 L 577.15,389.986 L 577.137,390.026 L 577.137,390.052 L 577.137,390.052 L 577.137,390.086 L 577.15,390.112 L 577.157,390.145 L 577.176,390.179 L 577.196,390.212 L 577.21,390.245 L 577.25,390.272 L 577.276,390.298 L 577.316,390.318 L 577.356,390.358 L 577.403,390.385 L 577.449,390.411 L 577.502,390.425 L 577.569,390.458 L 577.615,390.478 L 577.689,390.505 L 577.742,390.525 L 577.815,390.544 L 577.882,390.564 L 577.955,390.584 L 578.035,390.604 L 578.121,390.611 L 578.194,390.631 L 578.281,390.631 L 578.361,390.651 L 578.447,390.658 L 578.533,390.664 L 578.62,390.664 L 578.7,390.678 L 578.8,390.678 L 578.879,390.678 L 578.879,390.678 L 578.966,390.678 L 579.066,390.678 L 579.145,390.664 L 579.232,390.664 L 579.312,390.658 L 579.398,390.651 L 579.485,390.631 L 579.571,390.631 L 579.644,390.611 L 579.731,390.604 L 579.811,390.584 L 579.877,390.564 L 579.944,390.544 L 580.023,390.525 L 580.077,390.505 L 580.143,390.478 L 580.203,390.458 L 580.263,390.425 L 580.316,390.411 L 580.363,390.385 L 580.409,390.358 L 580.449,390.318 L 580.482,390.298 L 580.516,390.272 L 580.556,390.245 L 580.569,390.212 L 580.596,390.179 L 580.609,390.145 L 580.615,390.112 L 580.622,390.086 L 580.622,390.052z"/>
    <path style="fill: none; fill-opacity:0; stroke-width: 0.02; stroke: #aae6ff" d="M 580.396 389.939 L 580.396,389.913 L 580.389,389.893 L 580.369,389.866 L 580.349,389.839 L 580.329,389.819 L 580.316,389.793 L 580.276,389.773 L 580.25,389.746 L 580.21,389.726 L 580.17,389.693 L 580.123,389.68 L 580.077,389.653 L 580.023,389.633 L 579.964,389.613 L 579.91,389.593 L 579.851,389.58 L 579.784,389.567 L 579.711,389.547 L 579.644,389.527 L 579.571,389.52 L 579.491,389.507 L 579.412,389.487 L 579.332,389.48 L 579.252,389.467 L 579.165,389.46 L 579.079,389.46 L 578.992,389.447 L 578.913,389.447 L 578.826,389.44 L 578.733,389.44 L 578.647,389.44 L 578.647,389.44 L 578.567,389.44 L 578.467,389.44 L 578.38,389.447 L 578.294,389.447 L 578.214,389.46 L 578.128,389.46 L 578.041,389.467 L 577.955,389.48 L 577.882,389.487 L 577.795,389.507 L 577.729,389.52 L 577.649,389.527 L 577.582,389.547 L 577.502,389.567 L 577.449,389.58 L 577.383,389.593 L 577.323,389.613 L 577.276,389.633 L 577.21,389.653 L 577.163,389.68 L 577.117,389.693 L 577.083,389.726 L 577.043,389.746 L 577.023,389.773 L 576.984,389.793 L 576.957,389.819 L 576.944,389.839 L 576.924,389.866 L 576.91,389.893 L 576.904,389.913 L 576.904,389.939 L 576.904,389.939 L 576.904,389.966 L 576.91,389.986 L 576.924,390.019 L 576.944,390.046 L 576.957,390.066 L 576.984,390.092 L 577.023,390.112 L 577.043,390.132 L 577.083,390.152 L 577.117,390.185 L 577.163,390.205 L 577.21,390.225 L 577.276,390.245 L 577.323,390.272 L 577.383,390.292 L 577.449,390.298 L 577.502,390.318 L 577.582,390.338 L 577.649,390.358 L 577.729,390.365 L 577.795,390.378 L 577.882,390.391 L 577.955,390.405 L 578.041,390.411 L 578.128,390.425 L 578.214,390.425 L 578.294,390.425 L 578.38,390.425 L 578.467,390.438 L 578.567,390.438 L 578.647,390.438 L 578.647,390.438 L 578.733,390.438 L 578.826,390.438 L 578.913,390.425 L 578.992,390.425 L 579.079,390.425 L 579.165,390.425 L 579.252,390.411 L 579.332,390.405 L 579.412,390.391 L 579.491,390.378 L 579.571,390.365 L 579.644,390.358 L 579.711,390.338 L 579.784,390.318 L 579.851,390.298 L 579.91,390.292 L 579.964,390.272 L 580.023,390.245 L 580.077,390.225 L 580.123,390.205 L 580.17,390.185 L 580.21,390.152 L 580.25,390.132 L 580.276,390.112 L 580.316,390.092 L 580.329,390.066 L 580.349,390.046 L 580.369,390.019 L 580.389,389.986 L 580.396,389.966 L 580.396,389.939"/>
    <path style="fill: #000000" d="M 578.899 389.939 L 579.145,389.939 L 579.897,389.693 L 580.143,389.693 L 579.897,389.44 L 579.145,389.44 L 579.644,389.693 L 578.899,389.939z"/>
    <path style="fill: #000000" d="M 578.899 390.199 L 578.647,389.939 L 577.902,390.199 L 577.649,390.199 L 577.902,390.438 L 578.647,390.438 L 578.148,390.438 L 578.899,390.199z"/>
    <path style="fill: #000000" d="M 577.649 389.693 L 577.902,389.44 L 578.647,389.693 L 578.899,389.693 L 578.647,389.939 L 577.902,389.939 L 578.4,389.939 L 577.649,389.693z"/>
    <path style="fill: #000000" d="M 580.143 390.438 L 579.897,390.438 L 579.145,390.199 L 578.899,390.199 L 579.145,389.939 L 579.897,389.939 L 579.644,390.199 L 580.143,390.438z"/>
    <path style="fill: #ffffff" d="M 578.899 389.939 L 579.145,389.939 L 579.897,389.693 L 580.143,389.693 L 580.143,389.44 L 579.145,389.44 L 579.644,389.693 L 578.899,389.939z"/>
    <path style="fill: #ffffff" d="M 578.899 390.199 L 578.647,389.939 L 577.902,390.199 L 577.649,390.199 L 577.902,390.438 L 578.647,390.438 L 578.148,390.438 L 578.899,390.199z"/>
    <path style="fill: #ffffff" d="M 577.649 389.693 L 577.902,389.44 L 578.647,389.693 L 578.899,389.693 L 578.647,389.939 L 577.902,389.939 L 578.4,389.939 L 577.649,389.693z"/>
    <path style="fill: #ffffff" d="M 580.143 390.438 L 579.897,390.438 L 579.145,390.199 L 578.899,390.199 L 579.145,389.939 L 579.897,389.939 L 579.644,390.199 L 580.143,390.438z"/>
    <path style="fill: none; fill-opacity:0; stroke-width: 0.02; stroke: #aae6ff" d="M 576.904 389.939 L 576.904,390.697"/>
    <path style="fill: none; fill-opacity:0; stroke-width: 0.02; stroke: #aae6ff" d="M 580.642 389.939 L 580.642,390.697"/>
    <path style="fill: #222222" d="M 574.655 415.137 L 574.902,418.622 L 575.4,418.882 L 577.15,420.126 L 577.403,422.121 L 575.66,422.121 L 574.403,422.121 L 574.403,422.613 L 572.414,422.866 L 571.662,422.866 L 571.17,422.866 L 571.17,421.123 L 571.416,420.624 L 571.915,419.381 L 571.662,415.882 L 574.655,415.137z"/>
    <path style="fill: none; fill-opacity:0; stroke-width: 0.02; stroke: #000000" d="M 574.655 415.137 L 574.902,418.622 L 575.4,418.882 L 577.15,420.126 L 577.403,422.121 L 575.66,422.121 L 574.403,422.121 L 574.403,422.613 L 572.414,422.866 L 571.662,422.866 L 571.17,422.866 L 571.17,421.123 L 571.416,420.624 L 571.915,419.381 L 571.662,415.882 L 574.655,415.137"/>
    <path style="fill: #a5a585" d="M 566.174 406.908 L 572.66,407.154 L 574.403,406.908 L 575.4,407.4 L 575.66,408.398 L 576.159,417.624 L 575.4,419.121 L 573.917,419.381 L 571.662,419.121 L 570.917,412.635 L 566.174,406.908z"/>
    <path style="fill: none; fill-opacity:0; stroke-width: 0.02; stroke: #000000" d="M 566.174 406.908 L 572.66,407.154 L 574.403,406.908 L 575.4,407.4 L 575.66,408.398 L 576.159,417.624 L 575.4,419.121 L 573.917,419.381 L 571.662,419.121 L 570.917,412.635 L 566.174,406.908"/>
    <path style="fill: #ffc2aa" d="M 567.431 396.924 L 569.42,396.924 L 570.917,395.926 L 572.913,396.425 L 573.658,396.678 L 574.156,397.183 L 573.917,398.427 L 573.658,398.427 L 573.159,397.682 L 572.913,397.183 L 571.915,397.682 L 572.66,397.928 L 572.913,397.928 L 572.913,398.427 L 570.671,398.666 L 569.174,398.427 L 567.671,398.427 L 567.431,396.924z"/>
    <path style="fill: none; fill-opacity:0; stroke-width: 0.02; stroke: #000000" d="M 567.431 396.924 L 569.42,396.924 L 570.917,395.926 L 572.913,396.425 L 573.658,396.678 L 574.156,397.183 L 573.917,398.427 L 573.658,398.427 L 573.159,397.682 L 572.913,397.183 L 571.915,397.682 L 572.66,397.928 L 572.913,397.928 L 572.913,398.427 L 570.671,398.666 L 569.174,398.427 L 567.671,398.427 L 567.431,396.924"/>
    <path style="fill: #a5a585" d="M 560.686 396.425 L 568.921,396.678 L 569.42,397.423 L 569.42,398.926 L 562.928,400.17 L 560.686,396.425z"/>
    <path style="fill: none; fill-opacity:0; stroke-width: 0.02; stroke: #000000" d="M 560.686 396.425 L 568.921,396.678 L 569.42,397.423 L 569.42,398.926 L 562.928,400.17 L 560.686,396.425"/>
    <path style="fill: #222222" d="M 580.642 419.62 L 580.143,422.121 L 580.895,422.121 L 582.392,423.112 L 584.387,423.112 L 585.132,423.365 L 585.385,424.11 L 585.132,424.862 L 583.137,426.106 L 582.392,426.352 L 581.141,426.352 L 579.145,426.604 L 579.145,427.349 L 578.4,427.349 L 577.403,427.349 L 576.658,427.11 L 575.906,426.604 L 575.906,425.361 L 576.405,424.11 L 576.658,423.365 L 577.15,422.613 L 577.649,420.126 L 580.642,419.62z"/>
    <path style="fill: none; fill-opacity:0; stroke-width: 0.02; stroke: #000000" d="M 580.642 419.62 L 580.143,422.121 L 580.895,422.121 L 582.392,423.112 L 584.387,423.112 L 585.132,423.365 L 585.385,424.11 L 585.132,424.862 L 583.137,426.106 L 582.392,426.352 L 581.141,426.352 L 579.145,426.604 L 579.145,427.349 L 578.4,427.349 L 577.403,427.349 L 576.658,427.11 L 575.906,426.604 L 575.906,425.361 L 576.405,424.11 L 576.658,423.365 L 577.15,422.613 L 577.649,420.126 L 580.642,419.62"/>
    <path style="fill: #008077" d="M 562.682 417.877 L 575.66,413.394 L 575.906,413.886 L 575.906,413.886 L 575.906,413.886 L 575.906,414.638 L 575.906,414.638 L 575.66,415.137 L 563.181,419.62 L 562.682,417.877z"/>
    <path style="fill: #008077" d="M 562.682 417.877 L 575.66,413.394 L 575.906,413.886 L 575.906,414.638 L 575.66,415.137 L 563.181,419.62 L 562.682,417.877z"/>
    <path style="fill: none; fill-opacity:0; stroke-width: 0.02; stroke: #000000" d="M 562.682 417.877 L 575.66,413.394 L 575.906,413.886 L 575.906,414.638 L 575.66,415.137 L 563.181,419.62 L 562.682,417.877"/>
    <path style="fill: #aaaaaa" d="M 564.678 418.123 L 564.924,423.611 L 571.416,421.123 L 571.915,421.369 L 572.161,423.112 L 571.662,423.112 L 571.662,423.864 L 571.416,424.363 L 571.17,424.363 L 570.671,424.11 L 570.418,423.611 L 570.418,423.112 L 565.429,425.108 L 569.919,430.097 L 570.172,432.092 L 569.919,432.837 L 569.919,433.336 L 569.673,434.095 L 569.42,434.334 L 569.174,434.334 L 568.675,434.593 L 568.416,434.334 L 568.176,433.589 L 567.93,433.336 L 568.416,432.837 L 568.675,432.591 L 568.675,432.092 L 568.921,432.092 L 569.174,431.593 L 563.926,425.607 L 555.199,430.596 L 555.199,431.347 L 554.952,431.593 L 554.952,432.837 L 554.7,433.09 L 554.447,433.336 L 553.948,433.336 L 553.449,432.837 L 553.948,431.593 L 553.948,431.095 L 554.447,430.349 L 554.201,428.853 L 562.436,424.609 L 559.689,422.121 L 559.19,422.613 L 558.937,423.112 L 558.438,423.611 L 557.44,422.866 L 557.44,422.613 L 557.693,422.121 L 558.438,421.868 L 558.691,421.123 L 559.935,420.126 L 562.928,422.866 L 562.928,418.622 L 564.678,418.123z"/>
    <path style="fill: none; fill-opacity:0; stroke-width: 0.02; stroke: #000000" d="M 564.678 418.123 L 564.924,423.611 L 571.416,421.123 L 571.915,421.369 L 572.161,423.112 L 571.662,423.112 L 571.662,423.864 L 571.416,424.363 L 571.17,424.363 L 570.671,424.11 L 570.418,423.611 L 570.418,423.112 L 565.429,425.108 L 569.919,430.097 L 570.172,432.092 L 569.919,432.837 L 569.919,433.336 L 569.673,434.095 L 569.42,434.334 L 569.174,434.334 L 568.675,434.593 L 568.416,434.334 L 568.176,433.589 L 567.93,433.336 L 568.416,432.837 L 568.675,432.591 L 568.675,432.092 L 568.921,432.092 L 569.174,431.593 L 563.926,425.607 L 555.199,430.596 L 555.199,431.347 L 554.952,431.593 L 554.952,432.837 L 554.7,433.09 L 554.447,433.336 L 553.948,433.336 L 553.449,432.837 L 553.948,431.593 L 553.948,431.095 L 554.447,430.349 L 554.201,428.853 L 562.436,424.609 L 559.689,422.121 L 559.19,422.613 L 558.937,423.112 L 558.438,423.611 L 557.44,422.866 L 557.44,422.613 L 557.693,422.121 L 558.438,421.868 L 558.691,421.123 L 559.935,420.126 L 562.928,422.866 L 562.928,418.622 L 564.678,418.123"/>
    <path style="fill: #ffc2aa" d="M 576.405 401.666 L 578.148,400.669 L 578.148,399.671 L 579.145,398.926 L 579.398,398.926 L 579.398,399.671 L 580.642,399.172 L 581.64,398.926 L 581.893,399.671 L 581.64,399.924 L 581.64,402.165 L 579.644,402.91 L 579.145,402.91 L 578.4,403.409 L 576.405,401.666z"/>
    <path style="fill: none; fill-opacity:0; stroke-width: 0.02; stroke: #000000" d="M 576.405 401.666 L 578.148,400.669 L 578.148,399.671 L 579.145,398.926 L 579.398,398.926 L 579.398,399.671 L 580.642,399.172 L 581.64,398.926 L 581.893,399.671 L 581.64,399.924 L 581.64,402.165 L 579.644,402.91 L 579.145,402.91 L 578.4,403.409 L 576.405,401.666"/>
    <path style="fill: #ffc2aa" d="M 567.93 379.469 L 567.93,381.711 L 567.93,382.21 L 568.675,383.959 L 568.416,384.458 L 567.93,384.458 L 567.93,385.456 L 567.431,385.456 L 567.671,385.709 L 567.671,385.709 L 567.431,386.7 L 567.172,387.451 L 566.673,387.697 L 565.928,387.697 L 564.924,388.449 L 563.926,390.199 L 559.935,386.7 L 561.937,378.471 L 567.93,379.469z"/>
    <path style="fill: #ffc2aa" d="M 567.93 379.469 L 567.93,381.711 L 567.93,382.21 L 568.675,383.959 L 568.416,384.458 L 567.93,384.458 L 567.93,385.456 L 567.431,385.456 L 567.671,385.709 L 567.431,386.7 L 567.172,387.451 L 566.673,387.697 L 565.928,387.697 L 564.924,388.449 L 563.926,390.199 L 559.935,386.7 L 561.937,378.471 L 567.93,379.469z"/>
    <path style="fill: none; fill-opacity:0; stroke-width: 0.02; stroke: #000000" d="M 567.93 379.469 L 567.93,381.711 L 567.93,382.21 L 568.675,383.959 L 568.416,384.458 L 567.93,384.458 L 567.93,385.456 L 567.431,385.456 L 567.671,385.709 L 567.431,386.7 L 567.172,387.451 L 566.673,387.697 L 565.928,387.697 L 564.924,388.449 L 563.926,390.199 L 559.935,386.7 L 561.937,378.471 L 567.93,379.469"/>
    <path style="fill: #222222" d="M 564.179 383.454 L 563.427,384.212 L 562.682,386.201 L 560.434,386.7 L 559.436,386.454 L 558.192,384.711 L 558.192,381.711 L 558.192,380.214 L 559.436,377.972 L 561.185,376.728 L 563.926,376.728 L 566.673,377.473 L 567.431,377.972 L 568.675,379.223 L 568.675,379.968 L 566.933,380.467 L 565.675,380.214 L 565.429,381.465 L 565.675,383.454 L 564.678,383.959 L 564.425,383.713 L 564.179,383.454z"/>
    <path style="fill: none; fill-opacity:0; stroke-width: 0.02; stroke: #b7b79d" d="M 564.179 383.454 L 563.427,384.212 L 562.682,386.201 L 560.434,386.7 L 559.436,386.454 L 558.192,384.711 L 558.192,381.711 L 558.192,380.214 L 559.436,377.972 L 561.185,376.728 L 563.926,376.728 L 566.673,377.473 L 567.431,377.972 L 568.675,379.223 L 568.675,379.968 L 566.933,380.467 L 565.675,380.214 L 565.429,381.465 L 565.675,383.454 L 564.678,383.959 L 564.425,383.713 L 564.179,383.454"/>
    <path style="fill: #a5a585" d="M 576.405 413.141 L 565.429,417.126 L 566.933,411.638 L 565.429,408.651 L 572.66,408.152 L 575.4,408.152 L 577.649,408.152 L 580.895,407.899 L 581.893,408.398 L 582.392,410.148 L 582.392,412.895 L 581.893,417.624 L 582.145,423.112 L 580.895,423.365 L 579.644,423.864 L 576.159,423.365 L 576.904,413.886 L 576.405,412.895 L 576.405,413.141z"/>
    <path style="fill: #a5a585" d="M 576.405 413.141 L 565.429,417.126 L 566.933,411.638 L 565.429,408.651 L 572.66,408.152 L 575.4,408.152 L 577.649,408.152 L 580.895,407.899 L 581.893,408.398 L 582.392,410.148 L 582.392,412.895 L 581.893,417.624 L 582.145,423.112 L 580.895,423.365 L 579.644,423.864 L 576.159,423.365 L 576.904,413.886 L 576.405,412.895 L 576.405,413.141z"/>
    <path style="fill: none; fill-opacity:0; stroke-width: 0.02; stroke: #000000" d="M 576.405 413.141 L 565.429,417.126 L 566.933,411.638 L 565.429,408.651 L 572.66,408.152 L 575.4,408.152 L 577.649,408.152 L 580.895,407.899 L 581.893,408.398 L 582.392,410.148 L 582.392,412.895 L 581.893,417.624 L 582.145,423.112 L 580.895,423.365 L 579.644,423.864 L 576.159,423.365 L 576.904,413.886 L 576.405,412.895"/>
    <path style="fill: #ffffff" d="M 558.192 387.697 L 558.691,386.7 L 559.436,386.454 L 560.434,386.7 L 561.431,387.199 L 562.183,387.697 L 563.181,389.194 L 563.68,391.196 L 563.427,393.438 L 562.928,392.188 L 558.438,390.944 L 558.192,387.697z"/>
    <path style="fill: none; fill-opacity:0; stroke-width: 0.02; stroke: #000000" d="M 558.192 387.697 L 558.691,386.7 L 559.436,386.454 L 560.434,386.7 L 561.431,387.199 L 562.183,387.697 L 563.181,389.194 L 563.68,391.196 L 563.427,393.438 L 562.928,392.188 L 558.438,390.944 L 558.192,387.697"/>
    <path style="fill: #b7b79d" d="M 558.438 386.952 L 559.689,387.451 L 560.686,387.697 L 561.937,388.695 L 562.436,389.194 L 562.928,390.199 L 563.68,390.944 L 564.425,391.941 L 564.924,398.427 L 566.673,402.664 L 568.675,406.409 L 570.172,410.148 L 570.172,412.137 L 569.42,414.139 L 568.921,415.882 L 568.675,416.879 L 568.176,418.123 L 564.924,419.121 L 562.928,419.62 L 558.192,412.895 L 556.196,408.651 L 552.704,404.168 L 552.95,401.168 L 553.203,396.924 L 553.449,392.686 L 553.702,391.196 L 554.447,389.693 L 555.199,388.449 L 556.695,387.697 L 557.194,387.451 L 558.438,386.952z"/>
    <path style="fill: none; fill-opacity:0; stroke-width: 0.02; stroke: #000000" d="M 558.438 386.952 L 559.689,387.451 L 560.686,387.697 L 561.937,388.695 L 562.436,389.194 L 562.928,390.199 L 563.68,390.944 L 564.425,391.941 L 564.924,398.427 L 566.673,402.664 L 568.675,406.409 L 570.172,410.148 L 570.172,412.137 L 569.42,414.139 L 568.921,415.882 L 568.675,416.879 L 568.176,418.123 L 564.924,419.121 L 562.928,419.62 L 558.192,412.895 L 556.196,408.651 L 552.704,404.168 L 552.95,401.168 L 553.203,396.924 L 553.449,392.686 L 553.702,391.196 L 554.447,389.693 L 555.199,388.449 L 556.695,387.697 L 557.194,387.451 L 558.438,386.952"/>
    <path style="fill: #b7b79d" d="M 563.926 391.941 L 561.684,393.937 L 561.431,395.181 L 561.185,396.924 L 560.933,398.427 L 561.684,401.666 L 563.68,403.409 L 565.928,404.653 L 569.174,405.91 L 572.414,406.655 L 576.658,405.152 L 579.398,403.409 L 578.148,401.913 L 576.904,401.168 L 572.161,402.411 L 571.416,401.666 L 570.172,401.666 L 568.416,398.666 L 567.172,396.425 L 566.427,394.935 L 565.928,393.185 L 565.429,392.686 L 563.926,391.941z"/>
    <path style="fill: none; fill-opacity:0; stroke-width: 0.02; stroke: #000000" d="M 563.926 391.941 L 561.684,393.937 L 561.431,395.181 L 561.185,396.924 L 560.933,398.427 L 561.684,401.666 L 563.68,403.409 L 565.928,404.653 L 569.174,405.91 L 572.414,406.655 L 576.658,405.152 L 579.398,403.409 L 578.148,401.913 L 576.904,401.168 L 572.161,402.411 L 571.416,401.666 L 570.172,401.666 L 568.416,398.666 L 567.172,396.425 L 566.427,394.935 L 565.928,393.185 L 565.429,392.686 L 563.926,391.941"/>
    <path style="fill: #008077" d="M 550.21 398.666 L 551.706,400.921 L 555.199,402.411 L 559.935,412.895 L 561.684,415.635 L 563.427,419.62 L 560.187,419.62 L 555.199,416.627 L 548.713,398.666 L 550.21,398.666z"/>
    <path style="fill: none; fill-opacity:0; stroke-width: 0.02; stroke: #000000" d="M 550.21 398.666 L 551.706,400.921 L 555.199,402.411 L 559.935,412.895 L 561.684,415.635 L 563.427,419.62 L 560.187,419.62 L 555.199,416.627 L 548.713,398.666 L 550.21,398.666"/>
  </g>
  <g>
    <path style="fill: none; fill-opacity:0; stroke-width: 2; stroke: #ff8080" d="M 771.241,397.685 A 476.311,476.311 0 0 0 586.894,397.202"/>
    <polygon style="fill: #ff8080" points="778.584,399.208 767.739,401.929 771.261,397.587 769.9,392.165 "/>
    <polygon style="fill: none; fill-opacity:0; stroke-width: 2; stroke: #ff8080" points="778.584,399.208 767.739,401.929 771.261,397.587 769.9,392.165 "/>
  </g>
  <g>
    <path style="fill: none; fill-opacity:0; stroke-width: 2; stroke: #80ff80" d="M 774.968,409.882 A 125.525,125.525 0 0 0 710.912,463.7"/>
    <polygon style="fill: #80ff80" points="707.292,470.246 707.194,459.066 710.587,463.509 716.177,463.46 "/>
    <polygon style="fill: none; fill-opacity:0; stroke-width: 2; stroke: #80ff80" points="707.292,470.246 707.194,459.066 710.587,463.509 716.177,463.46 "/>
  </g>
  <g>
    <path style="fill: none; fill-opacity:0; stroke-width: 2; stroke: #80ff80" d="M 784.971,420.17 A 63.0253,63.0253 0 0 0 779.328,464.537"/>
    <polygon style="fill: #80ff80" points="781.45,471.651 773.027,464.298 778.602,464.712 782.278,460.501 "/>
    <polygon style="fill: none; fill-opacity:0; stroke-width: 2; stroke: #80ff80" points="781.45,471.651 773.027,464.298 778.602,464.712 782.278,460.501 "/>
  </g>
  <g>
    <path style="fill: none; fill-opacity:0; stroke-width: 2; stroke: #80ff80" d="M 807.213,418.892 A 230.603,230.603 0 0 0 872.453,481.871"/>
    <polygon style="fill: #80ff80" points="878.822,485.82 867.665,485.105 872.342,482.044 872.7,476.465 "/>
    <polygon style="fill: none; fill-opacity:0; stroke-width: 2; stroke: #80ff80" points="878.822,485.82 867.665,485.105 872.342,482.044 872.7,476.465 "/>
  </g>
  <g>
    <path style="fill: none; fill-opacity:0; stroke-width: 2; stroke: #8080ff" d="M 771.885,426.681 A 3308.42,3308.42 0 0 0 712.23,481.865"/>
    <polygon style="fill: #8080ff" points="777.457,421.661 773.353,432.061 771.875,426.67 766.675,424.618 "/>
    <polygon style="fill: none; fill-opacity:0; stroke-width: 2; stroke: #8080ff" points="777.457,421.661 773.353,432.061 771.875,426.67 766.675,424.618 "/>
  </g>
  <g>
    <path style="fill: none; fill-opacity:0; stroke-width: 2; stroke: #8080ff" d="M 803.229,472.272 A 147.492,147.492 0 0 0 803.573,429.658"/>
    <polygon style="fill: #8080ff" points="802.38,422.268 809.292,431.056 803.891,429.615 799.497,433.07 "/>
    <polygon style="fill: none; fill-opacity:0; stroke-width: 2; stroke: #8080ff" points="802.38,422.268 809.292,431.056 803.891,429.615 799.497,433.07 "/>
  </g>
  <g>
    <path style="fill: none; fill-opacity:0; stroke-width: 2; stroke: #8080ff" d="M 883.178,472.936 A 209.971,209.971 0 0 0 824.583,418.051"/>
    <polygon style="fill: #8080ff" points="818.172,414.172 829.339,414.735 824.703,417.86 824.422,423.443 "/>
    <polygon style="fill: none; fill-opacity:0; stroke-width: 2; stroke: #8080ff" points="818.172,414.172 829.339,414.735 824.703,417.86 824.422,423.443 "/>
  </g>
  <g>
    <path style="fill: none; fill-opacity:0; stroke-width: 2; stroke: #ffd280" d="M 587.34,406.752 A 426.684,426.684 0 0 0 774.97,409.171"/>
    <polygon style="fill: #ffd280" points="580.061,404.95 591.004,402.661 587.314,406.86 588.459,412.331 "/>
    <polygon style="fill: none; fill-opacity:0; stroke-width: 2; stroke: #ffd280" points="580.061,404.95 591.004,402.661 587.314,406.86 588.459,412.331 "/>
  </g>
  <text font-size="12.7998" style="fill: #ff8080;text-anchor:start;font-family:sans-serif;font-style:normal;font-weight:normal" x="651.746" y="384.367">
    <tspan x="651.746" y="384.367">1. Query</tspan>
  </text>
  <text font-size="12.7998" style="fill: #80ff80;text-anchor:start;font-family:sans-serif;font-style:normal;font-weight:normal" x="840" y="400">
    <tspan x="840" y="400">2. Map</tspan>
  </text>
  <text font-size="12.7998" style="fill: #8080ff;text-anchor:start;font-family:sans-serif;font-style:normal;font-weight:normal" x="880" y="460">
    <tspan x="880" y="460">3. Reduce</tspan>
  </text>
  <text font-size="12.7998" style="fill: #ffd280;text-anchor:start;font-family:sans-serif;font-style:normal;font-weight:normal" x="657.199" y="436.712">
    <tspan x="657.199" y="436.712">4. Result</tspan>
  </text>
  <g>
    <path style="fill: #b7b79d" d="M 774.953 406.97 L 814.921,406.97 L 814.921,414.356 L 774.953,414.356 L 774.953,406.97z"/>
    <path style="fill: none; fill-opacity:0; stroke-width: 0.02; stroke: #494936" d="M 774.953 406.97 L 814.921,406.97 L 814.921,414.356 L 774.953,414.356 L 774.953,406.97"/>
    <path style="fill: #c9c9b6" d="M 774.953 406.97 L 779.191,402.952 L 819.159,402.952 L 814.921,406.97 L 774.953,406.97z"/>
    <path style="fill: none; fill-opacity:0; stroke-width: 0.02; stroke: #494936" d="M 774.953 406.97 L 779.191,402.952 L 819.159,402.952 L 814.921,406.97 L 774.953,406.97"/>
    <path style="fill: none; fill-opacity:0; stroke-width: 2.12; stroke: #000000" d="M 812.686 410.332 L 803.095,410.332"/>
    <path style="fill: #7a7a5a" d="M 814.921 414.356 L 819.159,410.106 L 819.159,402.952 L 814.921,406.97 L 814.921,414.356z"/>
    <path style="fill: none; fill-opacity:0; stroke-width: 0.02; stroke: #494936" d="M 814.921 414.356 L 819.159,410.106 L 819.159,402.952 L 814.921,406.97 L 814.921,414.356"/>
    <path style="fill: #c9c9b6" d="M 775.18 419.041 L 779.638,413.456 L 810.457,413.456 L 805.998,419.041 L 775.18,419.041z"/>
    <path style="fill: none; fill-opacity:0; stroke-width: 0.02; stroke: #494936" d="M 775.18 419.041 L 779.638,413.456 L 810.457,413.456 L 805.998,419.041 L 775.18,419.041"/>
    <path style="fill: #7a7a5a" d="M 805.998 420.156 L 810.457,415.471 L 810.457,413.456 L 805.998,419.041 L 805.998,420.156z"/>
    <path style="fill: none; fill-opacity:0; stroke-width: 0.02; stroke: #494936" d="M 805.998 420.156 L 810.457,415.471 L 810.457,413.456 L 805.998,419.041 L 805.998,420.156"/>
    <path style="fill: #b7b79d" d="M 775.18 419.041 L 805.998,419.041 L 805.998,420.156 L 775.18,420.156 L 775.18,419.041z"/>
    <path style="fill: none; fill-opacity:0; stroke-width: 0.02; stroke: #494936" d="M 775.18 419.041 L 805.998,419.041 L 805.998,420.156 L 775.18,420.156 L 775.18,419.041"/>
    <path style="fill: #000000" d="M 780.979 406.082 L 784.336,402.952 L 812.686,402.952 L 809.569,406.082 L 780.979,406.082z"/>
    <path style="fill: none; fill-opacity:0; stroke-width: 0.02; stroke: #000000" d="M 780.979 406.082 L 784.336,402.952 L 812.686,402.952 L 809.569,406.082 L 780.979,406.082"/>
    <path style="fill: #c9c9b6" d="M 780.753 383.059 L 783.889,380.156 L 812.251,380.156 L 809.115,383.059 L 780.753,383.059z"/>
    <path style="fill: none; fill-opacity:0; stroke-width: 0.02; stroke: #494936" d="M 780.753 383.059 L 783.889,380.156 L 812.251,380.156 L 809.115,383.059 L 780.753,383.059"/>
    <path style="fill: #b7b79d" d="M 780.753 383.059 L 809.342,383.059 L 809.342,405.628 L 780.753,405.628 L 780.753,383.059z"/>
    <path style="fill: none; fill-opacity:0; stroke-width: 0.02; stroke: #494936" d="M 780.753 383.059 L 809.329,383.059 L 809.329,405.622 L 780.753,405.622 L 780.753,383.059"/>
    <path style="fill: #ffffff" d="M 783.208 385.956 L 806.88,385.956 L 806.88,403.393 L 783.208,403.393 L 783.208,385.956z"/>
    <path style="fill: none; fill-opacity:0; stroke-width: 0.02; stroke: #494936" d="M 783.208 385.956 L 806.88,385.956 L 806.88,403.387 L 783.208,403.387 L 783.208,385.956"/>
    <path style="fill: #7a7a5a" d="M 809.115 405.414 L 812.251,402.285 L 812.251,380.156 L 809.115,383.059 L 809.115,405.414z"/>
    <path style="fill: none; fill-opacity:0; stroke-width: 0.02; stroke: #494936" d="M 809.115 405.414 L 812.251,402.285 L 812.251,380.156 L 809.115,383.059 L 809.115,405.414"/>
  </g>
  <g>
    <path style="fill: #b7b79d" d="M 674.953 499.079 L 714.921,499.079 L 714.921,506.465 L 674.953,506.465 L 674.953,499.079z"/>
    <path style="fill: none; fill-opacity:0; stroke-width: 0.02; stroke: #494936" d="M 674.953 499.079 L 714.921,499.079 L 714.921,506.465 L 674.953,506.465 L 674.953,499.079"/>
    <path style="fill: #c9c9b6" d="M 674.953 499.079 L 679.191,495.061 L 719.159,495.061 L 714.921,499.079 L 674.953,499.079z"/>
    <path style="fill: none; fill-opacity:0; stroke-width: 0.02; stroke: #494936" d="M 674.953 499.079 L 679.191,495.061 L 719.159,495.061 L 714.921,499.079 L 674.953,499.079"/>
    <path style="fill: none; fill-opacity:0; stroke-width: 2.12; stroke: #000000" d="M 712.686 502.441 L 703.095,502.441"/>
    <path style="fill: #7a7a5a" d="M 714.921 506.465 L 719.159,502.215 L 719.159,495.061 L 714.921,499.079 L 714.921,506.465z"/>
    <path style="fill: none; fill-opacity:0; stroke-width: 0.02; stroke: #494936" d="M 714.921 506.465 L 719.159,502.215 L 719.159,495.061 L 714.921,499.079 L 714.921,506.465"/>
    <path style="fill: #c9c9b6" d="M 675.18 511.15 L 679.638,505.565 L 710.457,505.565 L 705.998,511.15 L 675.18,511.15z"/>
    <path style="fill: none; fill-opacity:0; stroke-width: 0.02; stroke: #494936" d="M 675.18 511.15 L 679.638,505.565 L 710.457,505.565 L 705.998,511.15 L 675.18,511.15"/>
    <path style="fill: #7a7a5a" d="M 705.998 512.265 L 710.457,507.58 L 710.457,505.565 L 705.998,511.15 L 705.998,512.265z"/>
    <path style="fill: none; fill-opacity:0; stroke-width: 0.02; stroke: #494936" d="M 705.998 512.265 L 710.457,507.58 L 710.457,505.565 L 705.998,511.15 L 705.998,512.265"/>
    <path style="fill: #b7b79d" d="M 675.18 511.15 L 705.998,511.15 L 705.998,512.265 L 675.18,512.265 L 675.18,511.15z"/>
    <path style="fill: none; fill-opacity:0; stroke-width: 0.02; stroke: #494936" d="M 675.18 511.15 L 705.998,511.15 L 705.998,512.265 L 675.18,512.265 L 675.18,511.15"/>
    <path style="fill: #000000" d="M 680.979 498.191 L 684.336,495.061 L 712.686,495.061 L 709.569,498.191 L 680.979,498.191z"/>
    <path style="fill: none; fill-opacity:0; stroke-width: 0.02; stroke: #000000" d="M 680.979 498.191 L 684.336,495.061 L 712.686,495.061 L 709.569,498.191 L 680.979,498.191"/>
    <path style="fill: #c9c9b6" d="M 680.753 475.168 L 683.889,472.265 L 712.251,472.265 L 709.115,475.168 L 680.753,475.168z"/>
    <path style="fill: none; fill-opacity:0; stroke-width: 0.02; stroke: #494936" d="M 680.753 475.168 L 683.889,472.265 L 712.251,472.265 L 709.115,475.168 L 680.753,475.168"/>
    <path style="fill: #b7b79d" d="M 680.753 475.168 L 709.342,475.168 L 709.342,497.737 L 680.753,497.737 L 680.753,475.168z"/>
    <path style="fill: none; fill-opacity:0; stroke-width: 0.02; stroke: #494936" d="M 680.753 475.168 L 709.329,475.168 L 709.329,497.731 L 680.753,497.731 L 680.753,475.168"/>
    <path style="fill: #ffffff" d="M 683.208 478.065 L 706.88,478.065 L 706.88,495.502 L 683.208,495.502 L 683.208,478.065z"/>
    <path style="fill: none; fill-opacity:0; stroke-width: 0.02; stroke: #494936" d="M 683.208 478.065 L 706.88,478.065 L 706.88,495.495 L 683.208,495.495 L 683.208,478.065"/>
    <path style="fill: #7a7a5a" d="M 709.115 497.523 L 712.251,494.393 L 712.251,472.265 L 709.115,475.168 L 709.115,497.523z"/>
    <path style="fill: none; fill-opacity:0; stroke-width: 0.02; stroke: #494936" d="M 709.115 497.523 L 712.251,494.393 L 712.251,472.265 L 709.115,475.168 L 709.115,497.523"/>
  </g>
  <g>
    <path style="fill: #b7b79d" d="M 774.953 499.079 L 814.921,499.079 L 814.921,506.465 L 774.953,506.465 L 774.953,499.079z"/>
    <path style="fill: none; fill-opacity:0; stroke-width: 0.02; stroke: #494936" d="M 774.953 499.079 L 814.921,499.079 L 814.921,506.465 L 774.953,506.465 L 774.953,499.079"/>
    <path style="fill: #c9c9b6" d="M 774.953 499.079 L 779.191,495.061 L 819.159,495.061 L 814.921,499.079 L 774.953,499.079z"/>
    <path style="fill: none; fill-opacity:0; stroke-width: 0.02; stroke: #494936" d="M 774.953 499.079 L 779.191,495.061 L 819.159,495.061 L 814.921,499.079 L 774.953,499.079"/>
    <path style="fill: none; fill-opacity:0; stroke-width: 2.12; stroke: #000000" d="M 812.686 502.441 L 803.095,502.441"/>
    <path style="fill: #7a7a5a" d="M 814.921 506.465 L 819.159,502.215 L 819.159,495.061 L 814.921,499.079 L 814.921,506.465z"/>
    <path style="fill: none; fill-opacity:0; stroke-width: 0.02; stroke: #494936" d="M 814.921 506.465 L 819.159,502.215 L 819.159,495.061 L 814.921,499.079 L 814.921,506.465"/>
    <path style="fill: #c9c9b6" d="M 775.18 511.15 L 779.638,505.565 L 810.457,505.565 L 805.998,511.15 L 775.18,511.15z"/>
    <path style="fill: none; fill-opacity:0; stroke-width: 0.02; stroke: #494936" d="M 775.18 511.15 L 779.638,505.565 L 810.457,505.565 L 805.998,511.15 L 775.18,511.15"/>
    <path style="fill: #7a7a5a" d="M 805.998 512.265 L 810.457,507.58 L 810.457,505.565 L 805.998,511.15 L 805.998,512.265z"/>
    <path style="fill: none; fill-opacity:0; stroke-width: 0.02; stroke: #494936" d="M 805.998 512.265 L 810.457,507.58 L 810.457,505.565 L 805.998,511.15 L 805.998,512.265"/>
    <path style="fill: #b7b79d" d="M 775.18 511.15 L 805.998,511.15 L 805.998,512.265 L 775.18,512.265 L 775.18,511.15z"/>
    <path style="fill: none; fill-opacity:0; stroke-width: 0.02; stroke: #494936" d="M 775.18 511.15 L 805.998,511.15 L 805.998,512.265 L 775.18,512.265 L 775.18,511.15"/>
    <path style="fill: #000000" d="M 780.979 498.191 L 784.336,495.061 L 812.686,495.061 L 809.569,498.191 L 780.979,498.191z"/>
    <path style="fill: none; fill-opacity:0; stroke-width: 0.02; stroke: #000000" d="M 780.979 498.191 L 784.336,495.061 L 812.686,495.061 L 809.569,498.191 L 780.979,498.191"/>
    <path style="fill: #c9c9b6" d="M 780.753 475.168 L 783.889,472.265 L 812.251,472.265 L 809.115,475.168 L 780.753,475.168z"/>
    <path style="fill: none; fill-opacity:0; stroke-width: 0.02; stroke: #494936" d="M 780.753 475.168 L 783.889,472.265 L 812.251,472.265 L 809.115,475.168 L 780.753,475.168"/>
    <path style="fill: #b7b79d" d="M 780.753 475.168 L 809.342,475.168 L 809.342,497.737 L 780.753,497.737 L 780.753,475.168z"/>
    <path style="fill: none; fill-opacity:0; stroke-width: 0.02; stroke: #494936" d="M 780.753 475.168 L 809.329,475.168 L 809.329,497.731 L 780.753,497.731 L 780.753,475.168"/>
    <path style="fill: #ffffff" d="M 783.208 478.065 L 806.88,478.065 L 806.88,495.502 L 783.208,495.502 L 783.208,478.065z"/>
    <path style="fill: none; fill-opacity:0; stroke-width: 0.02; stroke: #494936" d="M 783.208 478.065 L 806.88,478.065 L 806.88,495.495 L 783.208,495.495 L 783.208,478.065"/>
    <path style="fill: #7a7a5a" d="M 809.115 497.523 L 812.251,494.393 L 812.251,472.265 L 809.115,475.168 L 809.115,497.523z"/>
    <path style="fill: none; fill-opacity:0; stroke-width: 0.02; stroke: #494936" d="M 809.115 497.523 L 812.251,494.393 L 812.251,472.265 L 809.115,475.168 L 809.115,497.523"/>
  </g>
  <g>
    <path style="fill: #b7b79d" d="M 874.953 499.079 L 914.921,499.079 L 914.921,506.465 L 874.953,506.465 L 874.953,499.079z"/>
    <path style="fill: none; fill-opacity:0; stroke-width: 0.02; stroke: #494936" d="M 874.953 499.079 L 914.921,499.079 L 914.921,506.465 L 874.953,506.465 L 874.953,499.079"/>
    <path style="fill: #c9c9b6" d="M 874.953 499.079 L 879.191,495.061 L 919.159,495.061 L 914.921,499.079 L 874.953,499.079z"/>
    <path style="fill: none; fill-opacity:0; stroke-width: 0.02; stroke: #494936" d="M 874.953 499.079 L 879.191,495.061 L 919.159,495.061 L 914.921,499.079 L 874.953,499.079"/>
    <path style="fill: none; fill-opacity:0; stroke-width: 2.12; stroke: #000000" d="M 912.686 502.441 L 903.095,502.441"/>
    <path style="fill: #7a7a5a" d="M 914.921 506.465 L 919.159,502.215 L 919.159,495.061 L 914.921,499.079 L 914.921,506.465z"/>
    <path style="fill: none; fill-opacity:0; stroke-width: 0.02; stroke: #494936" d="M 914.921 506.465 L 919.159,502.215 L 919.159,495.061 L 914.921,499.079 L 914.921,506.465"/>
    <path style="fill: #c9c9b6" d="M 875.18 511.15 L 879.638,505.565 L 910.457,505.565 L 905.998,511.15 L 875.18,511.15z"/>
    <path style="fill: none; fill-opacity:0; stroke-width: 0.02; stroke: #494936" d="M 875.18 511.15 L 879.638,505.565 L 910.457,505.565 L 905.998,511.15 L 875.18,511.15"/>
    <path style="fill: #7a7a5a" d="M 905.998 512.265 L 910.457,507.58 L 910.457,505.565 L 905.998,511.15 L 905.998,512.265z"/>
    <path style="fill: none; fill-opacity:0; stroke-width: 0.02; stroke: #494936" d="M 905.998 512.265 L 910.457,507.58 L 910.457,505.565 L 905.998,511.15 L 905.998,512.265"/>
    <path style="fill: #b7b79d" d="M 875.18 511.15 L 905.998,511.15 L 905.998,512.265 L 875.18,512.265 L 875.18,511.15z"/>
    <path style="fill: none; fill-opacity:0; stroke-width: 0.02; stroke: #494936" d="M 875.18 511.15 L 905.998,511.15 L 905.998,512.265 L 875.18,512.265 L 875.18,511.15"/>
    <path style="fill: #000000" d="M 880.979 498.191 L 884.336,495.061 L 912.686,495.061 L 909.569,498.191 L 880.979,498.191z"/>
    <path style="fill: none; fill-opacity:0; stroke-width: 0.02; stroke: #000000" d="M 880.979 498.191 L 884.336,495.061 L 912.686,495.061 L 909.569,498.191 L 880.979,498.191"/>
    <path style="fill: #c9c9b6" d="M 880.753 475.168 L 883.889,472.265 L 912.251,472.265 L 909.115,475.168 L 880.753,475.168z"/>
    <path style="fill: none; fill-opacity:0; stroke-width: 0.02; stroke: #494936" d="M 880.753 475.168 L 883.889,472.265 L 912.251,472.265 L 909.115,475.168 L 880.753,475.168"/>
    <path style="fill: #b7b79d" d="M 880.753 475.168 L 909.342,475.168 L 909.342,497.737 L 880.753,497.737 L 880.753,475.168z"/>
    <path style="fill: none; fill-opacity:0; stroke-width: 0.02; stroke: #494936" d="M 880.753 475.168 L 909.329,475.168 L 909.329,497.731 L 880.753,497.731 L 880.753,475.168"/>
    <path style="fill: #ffffff" d="M 883.208 478.065 L 906.88,478.065 L 906.88,495.502 L 883.208,495.502 L 883.208,478.065z"/>
    <path style="fill: none; fill-opacity:0; stroke-width: 0.02; stroke: #494936" d="M 883.208 478.065 L 906.88,478.065 L 906.88,495.495 L 883.208,495.495 L 883.208,478.065"/>
    <path style="fill: #7a7a5a" d="M 909.115 497.523 L 912.251,494.393 L 912.251,472.265 L 909.115,475.168 L 909.115,497.523z"/>
    <path style="fill: none; fill-opacity:0; stroke-width: 0.02; stroke: #494936" d="M 909.115 497.523 L 912.251,494.393 L 912.251,472.265 L 909.115,475.168 L 909.115,497.523"/>
  </g>
</svg>
